M48
; DRILL file {KiCad 9.0.1} date 2025-04-18T19:30:10+1200
; FORMAT={-:-/ absolute / metric / decimal}
; #@! TF.CreationDate,2025-04-18T19:30:10+12:00
; #@! TF.GenerationSoftware,Kicad,Pcbnew,9.0.1
; #@! TF.FileFunction,Plated,1,2,PTH
FMAT,2
METRIC
; #@! TA.AperFunction,Plated,PTH,ComponentDrill
T1C0.762
; #@! TA.AperFunction,Plated,PTH,ComponentDrill
T2C0.800
; #@! TA.AperFunction,Plated,PTH,ComponentDrill
T3C1.100
; #@! TA.AperFunction,Plated,PTH,ComponentDrill
T4C2.000
%
G90
G05
T2
X104.035Y-62.235
X106.575Y-62.235
X109.115Y-62.235
X111.655Y-62.235
X119.275Y-77.475
X121.815Y-62.235
X121.815Y-77.475
X124.355Y-62.235
T3
X141.92Y-60.15
X141.92Y-74.65
X144.42Y-74.65
X146.92Y-60.15
X146.92Y-74.65
X155.5Y-69.0
X155.5Y-73.5
X162.0Y-69.0
X162.0Y-73.5
T1
G00X109.66Y-52.35
M15
G01X109.66Y-53.35
M16
G05
G00X112.2Y-52.35
M15
G01X112.2Y-53.35
M16
G05
G00X114.74Y-52.35
M15
G01X114.74Y-53.35
M16
G05
G00X117.28Y-52.35
M15
G01X117.28Y-53.35
M16
G05
T4
G00X139.34Y-66.65
M15
G01X139.34Y-67.65
M16
G05
G00X149.5Y-67.65
M15
G01X149.5Y-66.65
M16
G05
M30
