%TF.GenerationSoftware,KiCad,Pcbnew,9.0.1*%
%TF.CreationDate,2025-04-18T19:30:08+12:00*%
%TF.ProjectId,Custom_V0_Display,43757374-6f6d-45f5-9630-5f446973706c,rev?*%
%TF.SameCoordinates,Original*%
%TF.FileFunction,Legend,Bot*%
%TF.FilePolarity,Positive*%
%FSLAX46Y46*%
G04 Gerber Fmt 4.6, Leading zero omitted, Abs format (unit mm)*
G04 Created by KiCad (PCBNEW 9.0.1) date 2025-04-18 19:30:08*
%MOMM*%
%LPD*%
G01*
G04 APERTURE LIST*
%ADD10C,0.100000*%
%ADD11C,0.187500*%
%ADD12C,0.125000*%
%ADD13C,0.150000*%
%ADD14C,0.120000*%
%ADD15C,0.010000*%
G04 APERTURE END LIST*
D10*
X110562782Y-54453014D02*
X110312782Y-55203014D01*
X110312782Y-55203014D02*
X110062782Y-54453014D01*
X109384211Y-55131585D02*
X109419925Y-55167300D01*
X109419925Y-55167300D02*
X109527068Y-55203014D01*
X109527068Y-55203014D02*
X109598496Y-55203014D01*
X109598496Y-55203014D02*
X109705639Y-55167300D01*
X109705639Y-55167300D02*
X109777068Y-55095871D01*
X109777068Y-55095871D02*
X109812782Y-55024442D01*
X109812782Y-55024442D02*
X109848496Y-54881585D01*
X109848496Y-54881585D02*
X109848496Y-54774442D01*
X109848496Y-54774442D02*
X109812782Y-54631585D01*
X109812782Y-54631585D02*
X109777068Y-54560157D01*
X109777068Y-54560157D02*
X109705639Y-54488728D01*
X109705639Y-54488728D02*
X109598496Y-54453014D01*
X109598496Y-54453014D02*
X109527068Y-54453014D01*
X109527068Y-54453014D02*
X109419925Y-54488728D01*
X109419925Y-54488728D02*
X109384211Y-54524442D01*
X108634211Y-55131585D02*
X108669925Y-55167300D01*
X108669925Y-55167300D02*
X108777068Y-55203014D01*
X108777068Y-55203014D02*
X108848496Y-55203014D01*
X108848496Y-55203014D02*
X108955639Y-55167300D01*
X108955639Y-55167300D02*
X109027068Y-55095871D01*
X109027068Y-55095871D02*
X109062782Y-55024442D01*
X109062782Y-55024442D02*
X109098496Y-54881585D01*
X109098496Y-54881585D02*
X109098496Y-54774442D01*
X109098496Y-54774442D02*
X109062782Y-54631585D01*
X109062782Y-54631585D02*
X109027068Y-54560157D01*
X109027068Y-54560157D02*
X108955639Y-54488728D01*
X108955639Y-54488728D02*
X108848496Y-54453014D01*
X108848496Y-54453014D02*
X108777068Y-54453014D01*
X108777068Y-54453014D02*
X108669925Y-54488728D01*
X108669925Y-54488728D02*
X108634211Y-54524442D01*
D11*
X122633787Y-59462750D02*
X122526645Y-59498464D01*
X122526645Y-59498464D02*
X122348073Y-59498464D01*
X122348073Y-59498464D02*
X122276645Y-59462750D01*
X122276645Y-59462750D02*
X122240930Y-59427035D01*
X122240930Y-59427035D02*
X122205216Y-59355607D01*
X122205216Y-59355607D02*
X122205216Y-59284178D01*
X122205216Y-59284178D02*
X122240930Y-59212750D01*
X122240930Y-59212750D02*
X122276645Y-59177035D01*
X122276645Y-59177035D02*
X122348073Y-59141321D01*
X122348073Y-59141321D02*
X122490930Y-59105607D01*
X122490930Y-59105607D02*
X122562359Y-59069892D01*
X122562359Y-59069892D02*
X122598073Y-59034178D01*
X122598073Y-59034178D02*
X122633787Y-58962750D01*
X122633787Y-58962750D02*
X122633787Y-58891321D01*
X122633787Y-58891321D02*
X122598073Y-58819892D01*
X122598073Y-58819892D02*
X122562359Y-58784178D01*
X122562359Y-58784178D02*
X122490930Y-58748464D01*
X122490930Y-58748464D02*
X122312359Y-58748464D01*
X122312359Y-58748464D02*
X122205216Y-58784178D01*
X121455216Y-59427035D02*
X121490930Y-59462750D01*
X121490930Y-59462750D02*
X121598073Y-59498464D01*
X121598073Y-59498464D02*
X121669501Y-59498464D01*
X121669501Y-59498464D02*
X121776644Y-59462750D01*
X121776644Y-59462750D02*
X121848073Y-59391321D01*
X121848073Y-59391321D02*
X121883787Y-59319892D01*
X121883787Y-59319892D02*
X121919501Y-59177035D01*
X121919501Y-59177035D02*
X121919501Y-59069892D01*
X121919501Y-59069892D02*
X121883787Y-58927035D01*
X121883787Y-58927035D02*
X121848073Y-58855607D01*
X121848073Y-58855607D02*
X121776644Y-58784178D01*
X121776644Y-58784178D02*
X121669501Y-58748464D01*
X121669501Y-58748464D02*
X121598073Y-58748464D01*
X121598073Y-58748464D02*
X121490930Y-58784178D01*
X121490930Y-58784178D02*
X121455216Y-58819892D01*
X121133787Y-59498464D02*
X121133787Y-58748464D01*
X120705216Y-59498464D02*
X121026644Y-59069892D01*
X120705216Y-58748464D02*
X121133787Y-59177035D01*
X122405216Y-80084178D02*
X122476645Y-80048464D01*
X122476645Y-80048464D02*
X122583787Y-80048464D01*
X122583787Y-80048464D02*
X122690930Y-80084178D01*
X122690930Y-80084178D02*
X122762359Y-80155607D01*
X122762359Y-80155607D02*
X122798073Y-80227035D01*
X122798073Y-80227035D02*
X122833787Y-80369892D01*
X122833787Y-80369892D02*
X122833787Y-80477035D01*
X122833787Y-80477035D02*
X122798073Y-80619892D01*
X122798073Y-80619892D02*
X122762359Y-80691321D01*
X122762359Y-80691321D02*
X122690930Y-80762750D01*
X122690930Y-80762750D02*
X122583787Y-80798464D01*
X122583787Y-80798464D02*
X122512359Y-80798464D01*
X122512359Y-80798464D02*
X122405216Y-80762750D01*
X122405216Y-80762750D02*
X122369502Y-80727035D01*
X122369502Y-80727035D02*
X122369502Y-80477035D01*
X122369502Y-80477035D02*
X122512359Y-80477035D01*
X122048073Y-80798464D02*
X122048073Y-80048464D01*
X122048073Y-80048464D02*
X121619502Y-80798464D01*
X121619502Y-80798464D02*
X121619502Y-80048464D01*
X121262359Y-80798464D02*
X121262359Y-80048464D01*
X121262359Y-80048464D02*
X121083788Y-80048464D01*
X121083788Y-80048464D02*
X120976645Y-80084178D01*
X120976645Y-80084178D02*
X120905216Y-80155607D01*
X120905216Y-80155607D02*
X120869502Y-80227035D01*
X120869502Y-80227035D02*
X120833788Y-80369892D01*
X120833788Y-80369892D02*
X120833788Y-80477035D01*
X120833788Y-80477035D02*
X120869502Y-80619892D01*
X120869502Y-80619892D02*
X120905216Y-80691321D01*
X120905216Y-80691321D02*
X120976645Y-80762750D01*
X120976645Y-80762750D02*
X121083788Y-80798464D01*
X121083788Y-80798464D02*
X121262359Y-80798464D01*
D12*
X110122525Y-59708500D02*
X110051097Y-59732309D01*
X110051097Y-59732309D02*
X109932049Y-59732309D01*
X109932049Y-59732309D02*
X109884430Y-59708500D01*
X109884430Y-59708500D02*
X109860621Y-59684690D01*
X109860621Y-59684690D02*
X109836811Y-59637071D01*
X109836811Y-59637071D02*
X109836811Y-59589452D01*
X109836811Y-59589452D02*
X109860621Y-59541833D01*
X109860621Y-59541833D02*
X109884430Y-59518023D01*
X109884430Y-59518023D02*
X109932049Y-59494214D01*
X109932049Y-59494214D02*
X110027287Y-59470404D01*
X110027287Y-59470404D02*
X110074906Y-59446595D01*
X110074906Y-59446595D02*
X110098716Y-59422785D01*
X110098716Y-59422785D02*
X110122525Y-59375166D01*
X110122525Y-59375166D02*
X110122525Y-59327547D01*
X110122525Y-59327547D02*
X110098716Y-59279928D01*
X110098716Y-59279928D02*
X110074906Y-59256119D01*
X110074906Y-59256119D02*
X110027287Y-59232309D01*
X110027287Y-59232309D02*
X109908240Y-59232309D01*
X109908240Y-59232309D02*
X109836811Y-59256119D01*
X109670145Y-59232309D02*
X109551097Y-59732309D01*
X109551097Y-59732309D02*
X109455859Y-59375166D01*
X109455859Y-59375166D02*
X109360621Y-59732309D01*
X109360621Y-59732309D02*
X109241574Y-59232309D01*
X109074906Y-59279928D02*
X109051097Y-59256119D01*
X109051097Y-59256119D02*
X109003478Y-59232309D01*
X109003478Y-59232309D02*
X108884430Y-59232309D01*
X108884430Y-59232309D02*
X108836811Y-59256119D01*
X108836811Y-59256119D02*
X108813002Y-59279928D01*
X108813002Y-59279928D02*
X108789192Y-59327547D01*
X108789192Y-59327547D02*
X108789192Y-59375166D01*
X108789192Y-59375166D02*
X108813002Y-59446595D01*
X108813002Y-59446595D02*
X109098716Y-59732309D01*
X109098716Y-59732309D02*
X108789192Y-59732309D01*
X108693955Y-59779928D02*
X108313002Y-59779928D01*
X108027288Y-59470404D02*
X107955860Y-59494214D01*
X107955860Y-59494214D02*
X107932050Y-59518023D01*
X107932050Y-59518023D02*
X107908241Y-59565642D01*
X107908241Y-59565642D02*
X107908241Y-59637071D01*
X107908241Y-59637071D02*
X107932050Y-59684690D01*
X107932050Y-59684690D02*
X107955860Y-59708500D01*
X107955860Y-59708500D02*
X108003479Y-59732309D01*
X108003479Y-59732309D02*
X108193955Y-59732309D01*
X108193955Y-59732309D02*
X108193955Y-59232309D01*
X108193955Y-59232309D02*
X108027288Y-59232309D01*
X108027288Y-59232309D02*
X107979669Y-59256119D01*
X107979669Y-59256119D02*
X107955860Y-59279928D01*
X107955860Y-59279928D02*
X107932050Y-59327547D01*
X107932050Y-59327547D02*
X107932050Y-59375166D01*
X107932050Y-59375166D02*
X107955860Y-59422785D01*
X107955860Y-59422785D02*
X107979669Y-59446595D01*
X107979669Y-59446595D02*
X108027288Y-59470404D01*
X108027288Y-59470404D02*
X108193955Y-59470404D01*
X112222525Y-59708500D02*
X112151097Y-59732309D01*
X112151097Y-59732309D02*
X112032049Y-59732309D01*
X112032049Y-59732309D02*
X111984430Y-59708500D01*
X111984430Y-59708500D02*
X111960621Y-59684690D01*
X111960621Y-59684690D02*
X111936811Y-59637071D01*
X111936811Y-59637071D02*
X111936811Y-59589452D01*
X111936811Y-59589452D02*
X111960621Y-59541833D01*
X111960621Y-59541833D02*
X111984430Y-59518023D01*
X111984430Y-59518023D02*
X112032049Y-59494214D01*
X112032049Y-59494214D02*
X112127287Y-59470404D01*
X112127287Y-59470404D02*
X112174906Y-59446595D01*
X112174906Y-59446595D02*
X112198716Y-59422785D01*
X112198716Y-59422785D02*
X112222525Y-59375166D01*
X112222525Y-59375166D02*
X112222525Y-59327547D01*
X112222525Y-59327547D02*
X112198716Y-59279928D01*
X112198716Y-59279928D02*
X112174906Y-59256119D01*
X112174906Y-59256119D02*
X112127287Y-59232309D01*
X112127287Y-59232309D02*
X112008240Y-59232309D01*
X112008240Y-59232309D02*
X111936811Y-59256119D01*
X111770145Y-59232309D02*
X111651097Y-59732309D01*
X111651097Y-59732309D02*
X111555859Y-59375166D01*
X111555859Y-59375166D02*
X111460621Y-59732309D01*
X111460621Y-59732309D02*
X111341574Y-59232309D01*
X110889192Y-59732309D02*
X111174906Y-59732309D01*
X111032049Y-59732309D02*
X111032049Y-59232309D01*
X111032049Y-59232309D02*
X111079668Y-59303738D01*
X111079668Y-59303738D02*
X111127287Y-59351357D01*
X111127287Y-59351357D02*
X111174906Y-59375166D01*
X107322525Y-59708500D02*
X107251097Y-59732309D01*
X107251097Y-59732309D02*
X107132049Y-59732309D01*
X107132049Y-59732309D02*
X107084430Y-59708500D01*
X107084430Y-59708500D02*
X107060621Y-59684690D01*
X107060621Y-59684690D02*
X107036811Y-59637071D01*
X107036811Y-59637071D02*
X107036811Y-59589452D01*
X107036811Y-59589452D02*
X107060621Y-59541833D01*
X107060621Y-59541833D02*
X107084430Y-59518023D01*
X107084430Y-59518023D02*
X107132049Y-59494214D01*
X107132049Y-59494214D02*
X107227287Y-59470404D01*
X107227287Y-59470404D02*
X107274906Y-59446595D01*
X107274906Y-59446595D02*
X107298716Y-59422785D01*
X107298716Y-59422785D02*
X107322525Y-59375166D01*
X107322525Y-59375166D02*
X107322525Y-59327547D01*
X107322525Y-59327547D02*
X107298716Y-59279928D01*
X107298716Y-59279928D02*
X107274906Y-59256119D01*
X107274906Y-59256119D02*
X107227287Y-59232309D01*
X107227287Y-59232309D02*
X107108240Y-59232309D01*
X107108240Y-59232309D02*
X107036811Y-59256119D01*
X106870145Y-59232309D02*
X106751097Y-59732309D01*
X106751097Y-59732309D02*
X106655859Y-59375166D01*
X106655859Y-59375166D02*
X106560621Y-59732309D01*
X106560621Y-59732309D02*
X106441574Y-59232309D01*
X106274906Y-59279928D02*
X106251097Y-59256119D01*
X106251097Y-59256119D02*
X106203478Y-59232309D01*
X106203478Y-59232309D02*
X106084430Y-59232309D01*
X106084430Y-59232309D02*
X106036811Y-59256119D01*
X106036811Y-59256119D02*
X106013002Y-59279928D01*
X106013002Y-59279928D02*
X105989192Y-59327547D01*
X105989192Y-59327547D02*
X105989192Y-59375166D01*
X105989192Y-59375166D02*
X106013002Y-59446595D01*
X106013002Y-59446595D02*
X106298716Y-59732309D01*
X106298716Y-59732309D02*
X105989192Y-59732309D01*
X105893955Y-59779928D02*
X105513002Y-59779928D01*
X105417764Y-59589452D02*
X105179669Y-59589452D01*
X105465383Y-59732309D02*
X105298717Y-59232309D01*
X105298717Y-59232309D02*
X105132050Y-59732309D01*
D11*
X125233787Y-59462750D02*
X125126645Y-59498464D01*
X125126645Y-59498464D02*
X124948073Y-59498464D01*
X124948073Y-59498464D02*
X124876645Y-59462750D01*
X124876645Y-59462750D02*
X124840930Y-59427035D01*
X124840930Y-59427035D02*
X124805216Y-59355607D01*
X124805216Y-59355607D02*
X124805216Y-59284178D01*
X124805216Y-59284178D02*
X124840930Y-59212750D01*
X124840930Y-59212750D02*
X124876645Y-59177035D01*
X124876645Y-59177035D02*
X124948073Y-59141321D01*
X124948073Y-59141321D02*
X125090930Y-59105607D01*
X125090930Y-59105607D02*
X125162359Y-59069892D01*
X125162359Y-59069892D02*
X125198073Y-59034178D01*
X125198073Y-59034178D02*
X125233787Y-58962750D01*
X125233787Y-58962750D02*
X125233787Y-58891321D01*
X125233787Y-58891321D02*
X125198073Y-58819892D01*
X125198073Y-58819892D02*
X125162359Y-58784178D01*
X125162359Y-58784178D02*
X125090930Y-58748464D01*
X125090930Y-58748464D02*
X124912359Y-58748464D01*
X124912359Y-58748464D02*
X124805216Y-58784178D01*
X124483787Y-59498464D02*
X124483787Y-58748464D01*
X124483787Y-58748464D02*
X124305216Y-58748464D01*
X124305216Y-58748464D02*
X124198073Y-58784178D01*
X124198073Y-58784178D02*
X124126644Y-58855607D01*
X124126644Y-58855607D02*
X124090930Y-58927035D01*
X124090930Y-58927035D02*
X124055216Y-59069892D01*
X124055216Y-59069892D02*
X124055216Y-59177035D01*
X124055216Y-59177035D02*
X124090930Y-59319892D01*
X124090930Y-59319892D02*
X124126644Y-59391321D01*
X124126644Y-59391321D02*
X124198073Y-59462750D01*
X124198073Y-59462750D02*
X124305216Y-59498464D01*
X124305216Y-59498464D02*
X124483787Y-59498464D01*
X123769501Y-59284178D02*
X123412359Y-59284178D01*
X123840930Y-59498464D02*
X123590930Y-58748464D01*
X123590930Y-58748464D02*
X123340930Y-59498464D01*
D12*
X115774906Y-55166000D02*
X115667764Y-55201714D01*
X115667764Y-55201714D02*
X115489192Y-55201714D01*
X115489192Y-55201714D02*
X115417764Y-55166000D01*
X115417764Y-55166000D02*
X115382049Y-55130285D01*
X115382049Y-55130285D02*
X115346335Y-55058857D01*
X115346335Y-55058857D02*
X115346335Y-54987428D01*
X115346335Y-54987428D02*
X115382049Y-54916000D01*
X115382049Y-54916000D02*
X115417764Y-54880285D01*
X115417764Y-54880285D02*
X115489192Y-54844571D01*
X115489192Y-54844571D02*
X115632049Y-54808857D01*
X115632049Y-54808857D02*
X115703478Y-54773142D01*
X115703478Y-54773142D02*
X115739192Y-54737428D01*
X115739192Y-54737428D02*
X115774906Y-54666000D01*
X115774906Y-54666000D02*
X115774906Y-54594571D01*
X115774906Y-54594571D02*
X115739192Y-54523142D01*
X115739192Y-54523142D02*
X115703478Y-54487428D01*
X115703478Y-54487428D02*
X115632049Y-54451714D01*
X115632049Y-54451714D02*
X115453478Y-54451714D01*
X115453478Y-54451714D02*
X115346335Y-54487428D01*
X114596335Y-55130285D02*
X114632049Y-55166000D01*
X114632049Y-55166000D02*
X114739192Y-55201714D01*
X114739192Y-55201714D02*
X114810620Y-55201714D01*
X114810620Y-55201714D02*
X114917763Y-55166000D01*
X114917763Y-55166000D02*
X114989192Y-55094571D01*
X114989192Y-55094571D02*
X115024906Y-55023142D01*
X115024906Y-55023142D02*
X115060620Y-54880285D01*
X115060620Y-54880285D02*
X115060620Y-54773142D01*
X115060620Y-54773142D02*
X115024906Y-54630285D01*
X115024906Y-54630285D02*
X114989192Y-54558857D01*
X114989192Y-54558857D02*
X114917763Y-54487428D01*
X114917763Y-54487428D02*
X114810620Y-54451714D01*
X114810620Y-54451714D02*
X114739192Y-54451714D01*
X114739192Y-54451714D02*
X114632049Y-54487428D01*
X114632049Y-54487428D02*
X114596335Y-54523142D01*
X114274906Y-55201714D02*
X114274906Y-54451714D01*
X113846335Y-55201714D02*
X114167763Y-54773142D01*
X113846335Y-54451714D02*
X114274906Y-54880285D01*
X112746335Y-54487428D02*
X112817764Y-54451714D01*
X112817764Y-54451714D02*
X112924906Y-54451714D01*
X112924906Y-54451714D02*
X113032049Y-54487428D01*
X113032049Y-54487428D02*
X113103478Y-54558857D01*
X113103478Y-54558857D02*
X113139192Y-54630285D01*
X113139192Y-54630285D02*
X113174906Y-54773142D01*
X113174906Y-54773142D02*
X113174906Y-54880285D01*
X113174906Y-54880285D02*
X113139192Y-55023142D01*
X113139192Y-55023142D02*
X113103478Y-55094571D01*
X113103478Y-55094571D02*
X113032049Y-55166000D01*
X113032049Y-55166000D02*
X112924906Y-55201714D01*
X112924906Y-55201714D02*
X112853478Y-55201714D01*
X112853478Y-55201714D02*
X112746335Y-55166000D01*
X112746335Y-55166000D02*
X112710621Y-55130285D01*
X112710621Y-55130285D02*
X112710621Y-54880285D01*
X112710621Y-54880285D02*
X112853478Y-54880285D01*
X112389192Y-55201714D02*
X112389192Y-54451714D01*
X112389192Y-54451714D02*
X111960621Y-55201714D01*
X111960621Y-55201714D02*
X111960621Y-54451714D01*
X111603478Y-55201714D02*
X111603478Y-54451714D01*
X111603478Y-54451714D02*
X111424907Y-54451714D01*
X111424907Y-54451714D02*
X111317764Y-54487428D01*
X111317764Y-54487428D02*
X111246335Y-54558857D01*
X111246335Y-54558857D02*
X111210621Y-54630285D01*
X111210621Y-54630285D02*
X111174907Y-54773142D01*
X111174907Y-54773142D02*
X111174907Y-54880285D01*
X111174907Y-54880285D02*
X111210621Y-55023142D01*
X111210621Y-55023142D02*
X111246335Y-55094571D01*
X111246335Y-55094571D02*
X111317764Y-55166000D01*
X111317764Y-55166000D02*
X111424907Y-55201714D01*
X111424907Y-55201714D02*
X111603478Y-55201714D01*
D11*
X120069502Y-80048464D02*
X119605216Y-80048464D01*
X119605216Y-80048464D02*
X119855216Y-80334178D01*
X119855216Y-80334178D02*
X119748073Y-80334178D01*
X119748073Y-80334178D02*
X119676645Y-80369892D01*
X119676645Y-80369892D02*
X119640930Y-80405607D01*
X119640930Y-80405607D02*
X119605216Y-80477035D01*
X119605216Y-80477035D02*
X119605216Y-80655607D01*
X119605216Y-80655607D02*
X119640930Y-80727035D01*
X119640930Y-80727035D02*
X119676645Y-80762750D01*
X119676645Y-80762750D02*
X119748073Y-80798464D01*
X119748073Y-80798464D02*
X119962359Y-80798464D01*
X119962359Y-80798464D02*
X120033787Y-80762750D01*
X120033787Y-80762750D02*
X120069502Y-80727035D01*
X119355216Y-80298464D02*
X119176644Y-80798464D01*
X119176644Y-80798464D02*
X118998073Y-80298464D01*
X118783787Y-80048464D02*
X118319501Y-80048464D01*
X118319501Y-80048464D02*
X118569501Y-80334178D01*
X118569501Y-80334178D02*
X118462358Y-80334178D01*
X118462358Y-80334178D02*
X118390930Y-80369892D01*
X118390930Y-80369892D02*
X118355215Y-80405607D01*
X118355215Y-80405607D02*
X118319501Y-80477035D01*
X118319501Y-80477035D02*
X118319501Y-80655607D01*
X118319501Y-80655607D02*
X118355215Y-80727035D01*
X118355215Y-80727035D02*
X118390930Y-80762750D01*
X118390930Y-80762750D02*
X118462358Y-80798464D01*
X118462358Y-80798464D02*
X118676644Y-80798464D01*
X118676644Y-80798464D02*
X118748072Y-80762750D01*
X118748072Y-80762750D02*
X118783787Y-80727035D01*
D12*
X118274906Y-55166000D02*
X118167764Y-55201714D01*
X118167764Y-55201714D02*
X117989192Y-55201714D01*
X117989192Y-55201714D02*
X117917764Y-55166000D01*
X117917764Y-55166000D02*
X117882049Y-55130285D01*
X117882049Y-55130285D02*
X117846335Y-55058857D01*
X117846335Y-55058857D02*
X117846335Y-54987428D01*
X117846335Y-54987428D02*
X117882049Y-54916000D01*
X117882049Y-54916000D02*
X117917764Y-54880285D01*
X117917764Y-54880285D02*
X117989192Y-54844571D01*
X117989192Y-54844571D02*
X118132049Y-54808857D01*
X118132049Y-54808857D02*
X118203478Y-54773142D01*
X118203478Y-54773142D02*
X118239192Y-54737428D01*
X118239192Y-54737428D02*
X118274906Y-54666000D01*
X118274906Y-54666000D02*
X118274906Y-54594571D01*
X118274906Y-54594571D02*
X118239192Y-54523142D01*
X118239192Y-54523142D02*
X118203478Y-54487428D01*
X118203478Y-54487428D02*
X118132049Y-54451714D01*
X118132049Y-54451714D02*
X117953478Y-54451714D01*
X117953478Y-54451714D02*
X117846335Y-54487428D01*
X117524906Y-55201714D02*
X117524906Y-54451714D01*
X117524906Y-54451714D02*
X117346335Y-54451714D01*
X117346335Y-54451714D02*
X117239192Y-54487428D01*
X117239192Y-54487428D02*
X117167763Y-54558857D01*
X117167763Y-54558857D02*
X117132049Y-54630285D01*
X117132049Y-54630285D02*
X117096335Y-54773142D01*
X117096335Y-54773142D02*
X117096335Y-54880285D01*
X117096335Y-54880285D02*
X117132049Y-55023142D01*
X117132049Y-55023142D02*
X117167763Y-55094571D01*
X117167763Y-55094571D02*
X117239192Y-55166000D01*
X117239192Y-55166000D02*
X117346335Y-55201714D01*
X117346335Y-55201714D02*
X117524906Y-55201714D01*
X116810620Y-54987428D02*
X116453478Y-54987428D01*
X116882049Y-55201714D02*
X116632049Y-54451714D01*
X116632049Y-54451714D02*
X116382049Y-55201714D01*
X104222525Y-59708500D02*
X104151097Y-59732309D01*
X104151097Y-59732309D02*
X104032049Y-59732309D01*
X104032049Y-59732309D02*
X103984430Y-59708500D01*
X103984430Y-59708500D02*
X103960621Y-59684690D01*
X103960621Y-59684690D02*
X103936811Y-59637071D01*
X103936811Y-59637071D02*
X103936811Y-59589452D01*
X103936811Y-59589452D02*
X103960621Y-59541833D01*
X103960621Y-59541833D02*
X103984430Y-59518023D01*
X103984430Y-59518023D02*
X104032049Y-59494214D01*
X104032049Y-59494214D02*
X104127287Y-59470404D01*
X104127287Y-59470404D02*
X104174906Y-59446595D01*
X104174906Y-59446595D02*
X104198716Y-59422785D01*
X104198716Y-59422785D02*
X104222525Y-59375166D01*
X104222525Y-59375166D02*
X104222525Y-59327547D01*
X104222525Y-59327547D02*
X104198716Y-59279928D01*
X104198716Y-59279928D02*
X104174906Y-59256119D01*
X104174906Y-59256119D02*
X104127287Y-59232309D01*
X104127287Y-59232309D02*
X104008240Y-59232309D01*
X104008240Y-59232309D02*
X103936811Y-59256119D01*
X103770145Y-59232309D02*
X103651097Y-59732309D01*
X103651097Y-59732309D02*
X103555859Y-59375166D01*
X103555859Y-59375166D02*
X103460621Y-59732309D01*
X103460621Y-59732309D02*
X103341574Y-59232309D01*
X103174906Y-59279928D02*
X103151097Y-59256119D01*
X103151097Y-59256119D02*
X103103478Y-59232309D01*
X103103478Y-59232309D02*
X102984430Y-59232309D01*
X102984430Y-59232309D02*
X102936811Y-59256119D01*
X102936811Y-59256119D02*
X102913002Y-59279928D01*
X102913002Y-59279928D02*
X102889192Y-59327547D01*
X102889192Y-59327547D02*
X102889192Y-59375166D01*
X102889192Y-59375166D02*
X102913002Y-59446595D01*
X102913002Y-59446595D02*
X103198716Y-59732309D01*
X103198716Y-59732309D02*
X102889192Y-59732309D01*
D13*
X119325902Y-70309819D02*
X119659235Y-69833628D01*
X119897330Y-70309819D02*
X119897330Y-69309819D01*
X119897330Y-69309819D02*
X119516378Y-69309819D01*
X119516378Y-69309819D02*
X119421140Y-69357438D01*
X119421140Y-69357438D02*
X119373521Y-69405057D01*
X119373521Y-69405057D02*
X119325902Y-69500295D01*
X119325902Y-69500295D02*
X119325902Y-69643152D01*
X119325902Y-69643152D02*
X119373521Y-69738390D01*
X119373521Y-69738390D02*
X119421140Y-69786009D01*
X119421140Y-69786009D02*
X119516378Y-69833628D01*
X119516378Y-69833628D02*
X119897330Y-69833628D01*
X118897330Y-70309819D02*
X118897330Y-69309819D01*
X118897330Y-69309819D02*
X118516378Y-69309819D01*
X118516378Y-69309819D02*
X118421140Y-69357438D01*
X118421140Y-69357438D02*
X118373521Y-69405057D01*
X118373521Y-69405057D02*
X118325902Y-69500295D01*
X118325902Y-69500295D02*
X118325902Y-69643152D01*
X118325902Y-69643152D02*
X118373521Y-69738390D01*
X118373521Y-69738390D02*
X118421140Y-69786009D01*
X118421140Y-69786009D02*
X118516378Y-69833628D01*
X118516378Y-69833628D02*
X118897330Y-69833628D01*
X117944949Y-69405057D02*
X117897330Y-69357438D01*
X117897330Y-69357438D02*
X117802092Y-69309819D01*
X117802092Y-69309819D02*
X117563997Y-69309819D01*
X117563997Y-69309819D02*
X117468759Y-69357438D01*
X117468759Y-69357438D02*
X117421140Y-69405057D01*
X117421140Y-69405057D02*
X117373521Y-69500295D01*
X117373521Y-69500295D02*
X117373521Y-69595533D01*
X117373521Y-69595533D02*
X117421140Y-69738390D01*
X117421140Y-69738390D02*
X117992568Y-70309819D01*
X117992568Y-70309819D02*
X117373521Y-70309819D01*
X116754473Y-69309819D02*
X116659235Y-69309819D01*
X116659235Y-69309819D02*
X116563997Y-69357438D01*
X116563997Y-69357438D02*
X116516378Y-69405057D01*
X116516378Y-69405057D02*
X116468759Y-69500295D01*
X116468759Y-69500295D02*
X116421140Y-69690771D01*
X116421140Y-69690771D02*
X116421140Y-69928866D01*
X116421140Y-69928866D02*
X116468759Y-70119342D01*
X116468759Y-70119342D02*
X116516378Y-70214580D01*
X116516378Y-70214580D02*
X116563997Y-70262200D01*
X116563997Y-70262200D02*
X116659235Y-70309819D01*
X116659235Y-70309819D02*
X116754473Y-70309819D01*
X116754473Y-70309819D02*
X116849711Y-70262200D01*
X116849711Y-70262200D02*
X116897330Y-70214580D01*
X116897330Y-70214580D02*
X116944949Y-70119342D01*
X116944949Y-70119342D02*
X116992568Y-69928866D01*
X116992568Y-69928866D02*
X116992568Y-69690771D01*
X116992568Y-69690771D02*
X116944949Y-69500295D01*
X116944949Y-69500295D02*
X116897330Y-69405057D01*
X116897330Y-69405057D02*
X116849711Y-69357438D01*
X116849711Y-69357438D02*
X116754473Y-69309819D01*
X115563997Y-69643152D02*
X115563997Y-70309819D01*
X115802092Y-69262200D02*
X116040187Y-69976485D01*
X116040187Y-69976485D02*
X115421140Y-69976485D01*
X114849711Y-69309819D02*
X114754473Y-69309819D01*
X114754473Y-69309819D02*
X114659235Y-69357438D01*
X114659235Y-69357438D02*
X114611616Y-69405057D01*
X114611616Y-69405057D02*
X114563997Y-69500295D01*
X114563997Y-69500295D02*
X114516378Y-69690771D01*
X114516378Y-69690771D02*
X114516378Y-69928866D01*
X114516378Y-69928866D02*
X114563997Y-70119342D01*
X114563997Y-70119342D02*
X114611616Y-70214580D01*
X114611616Y-70214580D02*
X114659235Y-70262200D01*
X114659235Y-70262200D02*
X114754473Y-70309819D01*
X114754473Y-70309819D02*
X114849711Y-70309819D01*
X114849711Y-70309819D02*
X114944949Y-70262200D01*
X114944949Y-70262200D02*
X114992568Y-70214580D01*
X114992568Y-70214580D02*
X115040187Y-70119342D01*
X115040187Y-70119342D02*
X115087806Y-69928866D01*
X115087806Y-69928866D02*
X115087806Y-69690771D01*
X115087806Y-69690771D02*
X115040187Y-69500295D01*
X115040187Y-69500295D02*
X114992568Y-69405057D01*
X114992568Y-69405057D02*
X114944949Y-69357438D01*
X114944949Y-69357438D02*
X114849711Y-69309819D01*
X114087806Y-69928866D02*
X113325902Y-69928866D01*
X112944949Y-69309819D02*
X112278283Y-69309819D01*
X112278283Y-69309819D02*
X112944949Y-70309819D01*
X112944949Y-70309819D02*
X112278283Y-70309819D01*
X111516378Y-70262200D02*
X111611616Y-70309819D01*
X111611616Y-70309819D02*
X111802092Y-70309819D01*
X111802092Y-70309819D02*
X111897330Y-70262200D01*
X111897330Y-70262200D02*
X111944949Y-70166961D01*
X111944949Y-70166961D02*
X111944949Y-69786009D01*
X111944949Y-69786009D02*
X111897330Y-69690771D01*
X111897330Y-69690771D02*
X111802092Y-69643152D01*
X111802092Y-69643152D02*
X111611616Y-69643152D01*
X111611616Y-69643152D02*
X111516378Y-69690771D01*
X111516378Y-69690771D02*
X111468759Y-69786009D01*
X111468759Y-69786009D02*
X111468759Y-69881247D01*
X111468759Y-69881247D02*
X111944949Y-69976485D01*
X111040187Y-70309819D02*
X111040187Y-69643152D01*
X111040187Y-69833628D02*
X110992568Y-69738390D01*
X110992568Y-69738390D02*
X110944949Y-69690771D01*
X110944949Y-69690771D02*
X110849711Y-69643152D01*
X110849711Y-69643152D02*
X110754473Y-69643152D01*
X110278282Y-70309819D02*
X110373520Y-70262200D01*
X110373520Y-70262200D02*
X110421139Y-70214580D01*
X110421139Y-70214580D02*
X110468758Y-70119342D01*
X110468758Y-70119342D02*
X110468758Y-69833628D01*
X110468758Y-69833628D02*
X110421139Y-69738390D01*
X110421139Y-69738390D02*
X110373520Y-69690771D01*
X110373520Y-69690771D02*
X110278282Y-69643152D01*
X110278282Y-69643152D02*
X110135425Y-69643152D01*
X110135425Y-69643152D02*
X110040187Y-69690771D01*
X110040187Y-69690771D02*
X109992568Y-69738390D01*
X109992568Y-69738390D02*
X109944949Y-69833628D01*
X109944949Y-69833628D02*
X109944949Y-70119342D01*
X109944949Y-70119342D02*
X109992568Y-70214580D01*
X109992568Y-70214580D02*
X110040187Y-70262200D01*
X110040187Y-70262200D02*
X110135425Y-70309819D01*
X110135425Y-70309819D02*
X110278282Y-70309819D01*
D14*
%TO.C,REF\u002A\u002A*%
X125920000Y-78825000D02*
X102420000Y-78825000D01*
X102420000Y-78825000D02*
X102420000Y-60825000D01*
X125920000Y-60825000D02*
X125920000Y-78825000D01*
X102420000Y-60825000D02*
X125920000Y-60825000D01*
D15*
%TO.C,G\u002A\u002A\u002A*%
X133368600Y-68749983D02*
X133222352Y-68834876D01*
X131997000Y-69546162D01*
X131829269Y-69643525D01*
X131504891Y-69831815D01*
X131215351Y-69999881D01*
X130971255Y-70141566D01*
X130783209Y-70250713D01*
X130661819Y-70321166D01*
X130617692Y-70346770D01*
X130604761Y-70340478D01*
X130518561Y-70292877D01*
X130360495Y-70203630D01*
X130141118Y-70078754D01*
X129870988Y-69924267D01*
X129560661Y-69746185D01*
X129220692Y-69550524D01*
X127831400Y-68749849D01*
X127831400Y-67100000D01*
X128608823Y-67100000D01*
X128702712Y-67245156D01*
X128741777Y-67305476D01*
X128834137Y-67447951D01*
X128962037Y-67645166D01*
X129114162Y-67879678D01*
X129279200Y-68134043D01*
X129761800Y-68877772D01*
X130180900Y-68877886D01*
X130249377Y-68877596D01*
X130428384Y-68873500D01*
X130553150Y-68865563D01*
X130600000Y-68855076D01*
X130598535Y-68851172D01*
X130560382Y-68785882D01*
X130476714Y-68651683D01*
X130355814Y-68461619D01*
X130205966Y-68228735D01*
X130035454Y-67966076D01*
X129470907Y-67100000D01*
X128608823Y-67100000D01*
X127831400Y-67100000D01*
X127831400Y-65450150D01*
X127978934Y-65365123D01*
X129033667Y-65365123D01*
X129039892Y-65376148D01*
X129091971Y-65458837D01*
X129191601Y-65613361D01*
X129332798Y-65830551D01*
X129509580Y-66101238D01*
X129715963Y-66416255D01*
X129945964Y-66766432D01*
X130193600Y-67142603D01*
X131322179Y-68855076D01*
X131336600Y-68876959D01*
X131759934Y-68877479D01*
X131834533Y-68876891D01*
X132009521Y-68869187D01*
X132127559Y-68854402D01*
X132166334Y-68834876D01*
X132160109Y-68823851D01*
X132108030Y-68741162D01*
X132008400Y-68586638D01*
X131867203Y-68369448D01*
X131690421Y-68098761D01*
X131484038Y-67783744D01*
X131254037Y-67433567D01*
X131006400Y-67057396D01*
X129877822Y-65344923D01*
X130600000Y-65344923D01*
X130601466Y-65348827D01*
X130639619Y-65414117D01*
X130723287Y-65548316D01*
X130844187Y-65738380D01*
X130994035Y-65971264D01*
X131164547Y-66233923D01*
X131729094Y-67100000D01*
X132591178Y-67100000D01*
X132497289Y-66954843D01*
X132458224Y-66894523D01*
X132365864Y-66752048D01*
X132237964Y-66554833D01*
X132085839Y-66320321D01*
X131920800Y-66065956D01*
X131438200Y-65322227D01*
X131019100Y-65322113D01*
X130950624Y-65322403D01*
X130771617Y-65326499D01*
X130646851Y-65334436D01*
X130600000Y-65344923D01*
X129877822Y-65344923D01*
X129863400Y-65323040D01*
X129440067Y-65322520D01*
X129365468Y-65323108D01*
X129190480Y-65330812D01*
X129072442Y-65345597D01*
X129033667Y-65365123D01*
X127978934Y-65365123D01*
X130600000Y-63854552D01*
X133368600Y-65450150D01*
X133368600Y-67100000D01*
X133368600Y-68749983D01*
G36*
X133368600Y-68749983D02*
G01*
X133222352Y-68834876D01*
X131997000Y-69546162D01*
X131829269Y-69643525D01*
X131504891Y-69831815D01*
X131215351Y-69999881D01*
X130971255Y-70141566D01*
X130783209Y-70250713D01*
X130661819Y-70321166D01*
X130617692Y-70346770D01*
X130604761Y-70340478D01*
X130518561Y-70292877D01*
X130360495Y-70203630D01*
X130141118Y-70078754D01*
X129870988Y-69924267D01*
X129560661Y-69746185D01*
X129220692Y-69550524D01*
X127831400Y-68749849D01*
X127831400Y-67100000D01*
X128608823Y-67100000D01*
X128702712Y-67245156D01*
X128741777Y-67305476D01*
X128834137Y-67447951D01*
X128962037Y-67645166D01*
X129114162Y-67879678D01*
X129279200Y-68134043D01*
X129761800Y-68877772D01*
X130180900Y-68877886D01*
X130249377Y-68877596D01*
X130428384Y-68873500D01*
X130553150Y-68865563D01*
X130600000Y-68855076D01*
X130598535Y-68851172D01*
X130560382Y-68785882D01*
X130476714Y-68651683D01*
X130355814Y-68461619D01*
X130205966Y-68228735D01*
X130035454Y-67966076D01*
X129470907Y-67100000D01*
X128608823Y-67100000D01*
X127831400Y-67100000D01*
X127831400Y-65450150D01*
X127978934Y-65365123D01*
X129033667Y-65365123D01*
X129039892Y-65376148D01*
X129091971Y-65458837D01*
X129191601Y-65613361D01*
X129332798Y-65830551D01*
X129509580Y-66101238D01*
X129715963Y-66416255D01*
X129945964Y-66766432D01*
X130193600Y-67142603D01*
X131322179Y-68855076D01*
X131336600Y-68876959D01*
X131759934Y-68877479D01*
X131834533Y-68876891D01*
X132009521Y-68869187D01*
X132127559Y-68854402D01*
X132166334Y-68834876D01*
X132160109Y-68823851D01*
X132108030Y-68741162D01*
X132008400Y-68586638D01*
X131867203Y-68369448D01*
X131690421Y-68098761D01*
X131484038Y-67783744D01*
X131254037Y-67433567D01*
X131006400Y-67057396D01*
X129877822Y-65344923D01*
X130600000Y-65344923D01*
X130601466Y-65348827D01*
X130639619Y-65414117D01*
X130723287Y-65548316D01*
X130844187Y-65738380D01*
X130994035Y-65971264D01*
X131164547Y-66233923D01*
X131729094Y-67100000D01*
X132591178Y-67100000D01*
X132497289Y-66954843D01*
X132458224Y-66894523D01*
X132365864Y-66752048D01*
X132237964Y-66554833D01*
X132085839Y-66320321D01*
X131920800Y-66065956D01*
X131438200Y-65322227D01*
X131019100Y-65322113D01*
X130950624Y-65322403D01*
X130771617Y-65326499D01*
X130646851Y-65334436D01*
X130600000Y-65344923D01*
X129877822Y-65344923D01*
X129863400Y-65323040D01*
X129440067Y-65322520D01*
X129365468Y-65323108D01*
X129190480Y-65330812D01*
X129072442Y-65345597D01*
X129033667Y-65365123D01*
X127978934Y-65365123D01*
X130600000Y-63854552D01*
X133368600Y-65450150D01*
X133368600Y-67100000D01*
X133368600Y-68749983D01*
G37*
%TD*%
M02*
