%TF.GenerationSoftware,KiCad,Pcbnew,9.0.1*%
%TF.CreationDate,2025-04-18T19:30:08+12:00*%
%TF.ProjectId,Custom_V0_Display,43757374-6f6d-45f5-9630-5f446973706c,rev?*%
%TF.SameCoordinates,Original*%
%TF.FileFunction,Legend,Top*%
%TF.FilePolarity,Positive*%
%FSLAX46Y46*%
G04 Gerber Fmt 4.6, Leading zero omitted, Abs format (unit mm)*
G04 Created by KiCad (PCBNEW 9.0.1) date 2025-04-18 19:30:08*
%MOMM*%
%LPD*%
G01*
G04 APERTURE LIST*
%ADD10C,0.150000*%
%ADD11C,0.050000*%
%ADD12C,0.120000*%
G04 APERTURE END LIST*
D10*
X132553571Y-55089164D02*
X132696428Y-55089164D01*
X132696428Y-55089164D02*
X132767857Y-55124878D01*
X132767857Y-55124878D02*
X132839285Y-55196307D01*
X132839285Y-55196307D02*
X132875000Y-55339164D01*
X132875000Y-55339164D02*
X132875000Y-55589164D01*
X132875000Y-55589164D02*
X132839285Y-55732021D01*
X132839285Y-55732021D02*
X132767857Y-55803450D01*
X132767857Y-55803450D02*
X132696428Y-55839164D01*
X132696428Y-55839164D02*
X132553571Y-55839164D01*
X132553571Y-55839164D02*
X132482143Y-55803450D01*
X132482143Y-55803450D02*
X132410714Y-55732021D01*
X132410714Y-55732021D02*
X132375000Y-55589164D01*
X132375000Y-55589164D02*
X132375000Y-55339164D01*
X132375000Y-55339164D02*
X132410714Y-55196307D01*
X132410714Y-55196307D02*
X132482143Y-55124878D01*
X132482143Y-55124878D02*
X132553571Y-55089164D01*
X133553571Y-55839164D02*
X133196428Y-55839164D01*
X133196428Y-55839164D02*
X133196428Y-55089164D01*
X133803571Y-55446307D02*
X134053571Y-55446307D01*
X134160714Y-55839164D02*
X133803571Y-55839164D01*
X133803571Y-55839164D02*
X133803571Y-55089164D01*
X133803571Y-55089164D02*
X134160714Y-55089164D01*
X134482142Y-55839164D02*
X134482142Y-55089164D01*
X134482142Y-55089164D02*
X134660713Y-55089164D01*
X134660713Y-55089164D02*
X134767856Y-55124878D01*
X134767856Y-55124878D02*
X134839285Y-55196307D01*
X134839285Y-55196307D02*
X134874999Y-55267735D01*
X134874999Y-55267735D02*
X134910713Y-55410592D01*
X134910713Y-55410592D02*
X134910713Y-55517735D01*
X134910713Y-55517735D02*
X134874999Y-55660592D01*
X134874999Y-55660592D02*
X134839285Y-55732021D01*
X134839285Y-55732021D02*
X134767856Y-55803450D01*
X134767856Y-55803450D02*
X134660713Y-55839164D01*
X134660713Y-55839164D02*
X134482142Y-55839164D01*
X135624999Y-55839164D02*
X135196428Y-55839164D01*
X135410713Y-55839164D02*
X135410713Y-55089164D01*
X135410713Y-55089164D02*
X135339285Y-55196307D01*
X135339285Y-55196307D02*
X135267856Y-55267735D01*
X135267856Y-55267735D02*
X135196428Y-55303450D01*
D11*
X157833334Y-66704900D02*
X157904762Y-66728709D01*
X157904762Y-66728709D02*
X158023810Y-66728709D01*
X158023810Y-66728709D02*
X158071429Y-66704900D01*
X158071429Y-66704900D02*
X158095238Y-66681090D01*
X158095238Y-66681090D02*
X158119048Y-66633471D01*
X158119048Y-66633471D02*
X158119048Y-66585852D01*
X158119048Y-66585852D02*
X158095238Y-66538233D01*
X158095238Y-66538233D02*
X158071429Y-66514423D01*
X158071429Y-66514423D02*
X158023810Y-66490614D01*
X158023810Y-66490614D02*
X157928572Y-66466804D01*
X157928572Y-66466804D02*
X157880953Y-66442995D01*
X157880953Y-66442995D02*
X157857143Y-66419185D01*
X157857143Y-66419185D02*
X157833334Y-66371566D01*
X157833334Y-66371566D02*
X157833334Y-66323947D01*
X157833334Y-66323947D02*
X157857143Y-66276328D01*
X157857143Y-66276328D02*
X157880953Y-66252519D01*
X157880953Y-66252519D02*
X157928572Y-66228709D01*
X157928572Y-66228709D02*
X158047619Y-66228709D01*
X158047619Y-66228709D02*
X158119048Y-66252519D01*
X158285714Y-66228709D02*
X158404762Y-66728709D01*
X158404762Y-66728709D02*
X158500000Y-66371566D01*
X158500000Y-66371566D02*
X158595238Y-66728709D01*
X158595238Y-66728709D02*
X158714286Y-66228709D01*
X159166667Y-66728709D02*
X158880953Y-66728709D01*
X159023810Y-66728709D02*
X159023810Y-66228709D01*
X159023810Y-66228709D02*
X158976191Y-66300138D01*
X158976191Y-66300138D02*
X158928572Y-66347757D01*
X158928572Y-66347757D02*
X158880953Y-66371566D01*
D10*
X150166667Y-62407200D02*
X150309524Y-62454819D01*
X150309524Y-62454819D02*
X150547619Y-62454819D01*
X150547619Y-62454819D02*
X150642857Y-62407200D01*
X150642857Y-62407200D02*
X150690476Y-62359580D01*
X150690476Y-62359580D02*
X150738095Y-62264342D01*
X150738095Y-62264342D02*
X150738095Y-62169104D01*
X150738095Y-62169104D02*
X150690476Y-62073866D01*
X150690476Y-62073866D02*
X150642857Y-62026247D01*
X150642857Y-62026247D02*
X150547619Y-61978628D01*
X150547619Y-61978628D02*
X150357143Y-61931009D01*
X150357143Y-61931009D02*
X150261905Y-61883390D01*
X150261905Y-61883390D02*
X150214286Y-61835771D01*
X150214286Y-61835771D02*
X150166667Y-61740533D01*
X150166667Y-61740533D02*
X150166667Y-61645295D01*
X150166667Y-61645295D02*
X150214286Y-61550057D01*
X150214286Y-61550057D02*
X150261905Y-61502438D01*
X150261905Y-61502438D02*
X150357143Y-61454819D01*
X150357143Y-61454819D02*
X150595238Y-61454819D01*
X150595238Y-61454819D02*
X150738095Y-61502438D01*
X151071429Y-61454819D02*
X151309524Y-62454819D01*
X151309524Y-62454819D02*
X151500000Y-61740533D01*
X151500000Y-61740533D02*
X151690476Y-62454819D01*
X151690476Y-62454819D02*
X151928572Y-61454819D01*
X152261905Y-61550057D02*
X152309524Y-61502438D01*
X152309524Y-61502438D02*
X152404762Y-61454819D01*
X152404762Y-61454819D02*
X152642857Y-61454819D01*
X152642857Y-61454819D02*
X152738095Y-61502438D01*
X152738095Y-61502438D02*
X152785714Y-61550057D01*
X152785714Y-61550057D02*
X152833333Y-61645295D01*
X152833333Y-61645295D02*
X152833333Y-61740533D01*
X152833333Y-61740533D02*
X152785714Y-61883390D01*
X152785714Y-61883390D02*
X152214286Y-62454819D01*
X152214286Y-62454819D02*
X152833333Y-62454819D01*
%TO.C,OLED1*%
X95770000Y-50650000D02*
X95770000Y-84150000D01*
X95770000Y-50650000D02*
X131170000Y-50650000D01*
X95770000Y-84150000D02*
X131170000Y-84150000D01*
X131170000Y-50650000D02*
X131170000Y-84150000D01*
D12*
%TO.C,SW1*%
X155250000Y-70500000D02*
X155250000Y-72000000D01*
X156500000Y-74500000D02*
X161000000Y-74500000D01*
X161000000Y-68000000D02*
X156500000Y-68000000D01*
X162250000Y-72000000D02*
X162250000Y-70500000D01*
D10*
%TO.C,SW2*%
X148170000Y-67150000D02*
G75*
G02*
X140670000Y-67150000I-3750000J0D01*
G01*
X140670000Y-67150000D02*
G75*
G02*
X148170000Y-67150000I3750000J0D01*
G01*
%TD*%
M02*
