%TF.GenerationSoftware,KiCad,Pcbnew,9.0.1*%
%TF.CreationDate,2025-04-18T19:30:08+12:00*%
%TF.ProjectId,Custom_V0_Display,43757374-6f6d-45f5-9630-5f446973706c,rev?*%
%TF.SameCoordinates,Original*%
%TF.FileFunction,Copper,L1,Top*%
%TF.FilePolarity,Positive*%
%FSLAX46Y46*%
G04 Gerber Fmt 4.6, Leading zero omitted, Abs format (unit mm)*
G04 Created by KiCad (PCBNEW 9.0.1) date 2025-04-18 19:30:08*
%MOMM*%
%LPD*%
G01*
G04 APERTURE LIST*
G04 Aperture macros list*
%AMRoundRect*
0 Rectangle with rounded corners*
0 $1 Rounding radius*
0 $2 $3 $4 $5 $6 $7 $8 $9 X,Y pos of 4 corners*
0 Add a 4 corners polygon primitive as box body*
4,1,4,$2,$3,$4,$5,$6,$7,$8,$9,$2,$3,0*
0 Add four circle primitives for the rounded corners*
1,1,$1+$1,$2,$3*
1,1,$1+$1,$4,$5*
1,1,$1+$1,$6,$7*
1,1,$1+$1,$8,$9*
0 Add four rect primitives between the rounded corners*
20,1,$1+$1,$2,$3,$4,$5,0*
20,1,$1+$1,$4,$5,$6,$7,0*
20,1,$1+$1,$6,$7,$8,$9,0*
20,1,$1+$1,$8,$9,$2,$3,0*%
G04 Aperture macros list end*
%TA.AperFunction,ComponentPad*%
%ADD10RoundRect,0.400000X0.400000X-0.900000X0.400000X0.900000X-0.400000X0.900000X-0.400000X-0.900000X0*%
%TD*%
%TA.AperFunction,ComponentPad*%
%ADD11RoundRect,0.400050X0.400050X-0.899950X0.400050X0.899950X-0.400050X0.899950X-0.400050X-0.899950X0*%
%TD*%
%TA.AperFunction,ComponentPad*%
%ADD12O,1.524000X2.524000*%
%TD*%
%TA.AperFunction,ComponentPad*%
%ADD13C,2.000000*%
%TD*%
%TA.AperFunction,ComponentPad*%
%ADD14O,2.500000X4.000000*%
%TD*%
%TA.AperFunction,Conductor*%
%ADD15C,0.200000*%
%TD*%
G04 APERTURE END LIST*
D10*
%TO.P,REF\u002A\u002A,1*%
%TO.N,GPIO0*%
X124354950Y-61635000D03*
%TO.P,REF\u002A\u002A,2*%
%TO.N,GPIO1*%
X121814950Y-61635000D03*
D11*
%TO.P,REF\u002A\u002A,6*%
%TO.N,GPIO5*%
X111654950Y-61635000D03*
%TO.P,REF\u002A\u002A,7*%
%TO.N,GPIO6*%
X109114950Y-61635000D03*
%TO.P,REF\u002A\u002A,8*%
%TO.N,GPIO7*%
X106574950Y-61635000D03*
%TO.P,REF\u002A\u002A,9*%
%TO.N,GPIO8*%
X104034950Y-61635000D03*
%TO.P,REF\u002A\u002A,20*%
%TO.N,GND*%
X121814950Y-78075000D03*
%TO.P,REF\u002A\u002A,21*%
%TO.N,3v3*%
X119274950Y-78075000D03*
%TD*%
D12*
%TO.P,OLED1,1*%
%TO.N,3v3*%
X109660000Y-52850000D03*
%TO.P,OLED1,2*%
%TO.N,GND*%
X112200000Y-52850000D03*
%TO.P,OLED1,3*%
%TO.N,GPIO1*%
X114740000Y-52850000D03*
%TO.P,OLED1,4*%
%TO.N,GPIO0*%
X117280000Y-52850000D03*
%TD*%
D13*
%TO.P,SW1,1*%
%TO.N,GND*%
X155500000Y-69000000D03*
X162000000Y-69000000D03*
%TO.P,SW1,2*%
%TO.N,GPIO5*%
X155500000Y-73500000D03*
X162000000Y-73500000D03*
%TD*%
%TO.P,SW2,A*%
%TO.N,GPIO7*%
X141920000Y-74650000D03*
%TO.P,SW2,B*%
%TO.N,GPIO6*%
X146920000Y-74650000D03*
%TO.P,SW2,C*%
%TO.N,GND*%
X144420000Y-74650000D03*
D14*
%TO.P,SW2,MP*%
%TO.N,N/C*%
X139340000Y-67150000D03*
X149500000Y-67150000D03*
D13*
%TO.P,SW2,S1*%
%TO.N,GPIO8*%
X141920000Y-60150000D03*
%TO.P,SW2,S2*%
%TO.N,GND*%
X146920000Y-60150000D03*
%TD*%
D15*
%TO.N,GPIO8*%
X104034950Y-62235000D02*
X104034950Y-61665050D01*
%TD*%
%TA.AperFunction,Conductor*%
%TO.N,GND*%
G36*
X164612539Y-50170185D02*
G01*
X164658294Y-50222989D01*
X164669500Y-50274500D01*
X164669500Y-84025500D01*
X164649815Y-84092539D01*
X164597011Y-84138294D01*
X164545500Y-84149500D01*
X85794500Y-84149500D01*
X85727461Y-84129815D01*
X85681706Y-84077011D01*
X85670500Y-84025500D01*
X85670500Y-80528711D01*
X87319500Y-80528711D01*
X87319500Y-80771288D01*
X87351161Y-81011785D01*
X87413947Y-81246104D01*
X87506773Y-81470205D01*
X87506776Y-81470212D01*
X87628064Y-81680289D01*
X87628066Y-81680292D01*
X87628067Y-81680293D01*
X87775733Y-81872736D01*
X87775739Y-81872743D01*
X87947256Y-82044260D01*
X87947262Y-82044265D01*
X88139711Y-82191936D01*
X88349788Y-82313224D01*
X88573900Y-82406054D01*
X88808211Y-82468838D01*
X88988586Y-82492584D01*
X89048711Y-82500500D01*
X89048712Y-82500500D01*
X89291289Y-82500500D01*
X89339388Y-82494167D01*
X89531789Y-82468838D01*
X89766100Y-82406054D01*
X89990212Y-82313224D01*
X90200289Y-82191936D01*
X90392738Y-82044265D01*
X90564265Y-81872738D01*
X90711936Y-81680289D01*
X90833224Y-81470212D01*
X90926054Y-81246100D01*
X90988838Y-81011789D01*
X91020500Y-80771288D01*
X91020500Y-80528712D01*
X91020500Y-80528711D01*
X159319500Y-80528711D01*
X159319500Y-80771288D01*
X159351161Y-81011785D01*
X159413947Y-81246104D01*
X159506773Y-81470205D01*
X159506776Y-81470212D01*
X159628064Y-81680289D01*
X159628066Y-81680292D01*
X159628067Y-81680293D01*
X159775733Y-81872736D01*
X159775739Y-81872743D01*
X159947256Y-82044260D01*
X159947262Y-82044265D01*
X160139711Y-82191936D01*
X160349788Y-82313224D01*
X160573900Y-82406054D01*
X160808211Y-82468838D01*
X160988586Y-82492584D01*
X161048711Y-82500500D01*
X161048712Y-82500500D01*
X161291289Y-82500500D01*
X161339388Y-82494167D01*
X161531789Y-82468838D01*
X161766100Y-82406054D01*
X161990212Y-82313224D01*
X162200289Y-82191936D01*
X162392738Y-82044265D01*
X162564265Y-81872738D01*
X162711936Y-81680289D01*
X162833224Y-81470212D01*
X162926054Y-81246100D01*
X162988838Y-81011789D01*
X163020500Y-80771288D01*
X163020500Y-80528712D01*
X162988838Y-80288211D01*
X162926054Y-80053900D01*
X162833224Y-79829788D01*
X162711936Y-79619711D01*
X162595621Y-79468126D01*
X162564266Y-79427263D01*
X162564260Y-79427256D01*
X162392743Y-79255739D01*
X162392736Y-79255733D01*
X162200293Y-79108067D01*
X162200292Y-79108066D01*
X162200289Y-79108064D01*
X161990212Y-78986776D01*
X161990205Y-78986773D01*
X161766104Y-78893947D01*
X161531785Y-78831161D01*
X161291289Y-78799500D01*
X161291288Y-78799500D01*
X161048712Y-78799500D01*
X161048711Y-78799500D01*
X160808214Y-78831161D01*
X160573895Y-78893947D01*
X160349794Y-78986773D01*
X160349785Y-78986777D01*
X160139706Y-79108067D01*
X159947263Y-79255733D01*
X159947256Y-79255739D01*
X159775739Y-79427256D01*
X159775733Y-79427263D01*
X159628067Y-79619706D01*
X159506777Y-79829785D01*
X159506773Y-79829794D01*
X159413947Y-80053895D01*
X159351161Y-80288214D01*
X159319500Y-80528711D01*
X91020500Y-80528711D01*
X90988838Y-80288211D01*
X90926054Y-80053900D01*
X90833224Y-79829788D01*
X90711936Y-79619711D01*
X90595621Y-79468126D01*
X90564266Y-79427263D01*
X90564260Y-79427256D01*
X90392743Y-79255739D01*
X90392736Y-79255733D01*
X90200293Y-79108067D01*
X90200292Y-79108066D01*
X90200289Y-79108064D01*
X89990212Y-78986776D01*
X89990205Y-78986773D01*
X89766104Y-78893947D01*
X89531785Y-78831161D01*
X89291289Y-78799500D01*
X89291288Y-78799500D01*
X89048712Y-78799500D01*
X89048711Y-78799500D01*
X88808214Y-78831161D01*
X88573895Y-78893947D01*
X88349794Y-78986773D01*
X88349785Y-78986777D01*
X88139706Y-79108067D01*
X87947263Y-79255733D01*
X87947256Y-79255739D01*
X87775739Y-79427256D01*
X87775733Y-79427263D01*
X87628067Y-79619706D01*
X87506777Y-79829785D01*
X87506773Y-79829794D01*
X87413947Y-80053895D01*
X87351161Y-80288214D01*
X87319500Y-80528711D01*
X85670500Y-80528711D01*
X85670500Y-77112019D01*
X117974350Y-77112019D01*
X117974350Y-79037964D01*
X117974351Y-79037983D01*
X117980537Y-79116599D01*
X117980537Y-79116602D01*
X117980538Y-79116603D01*
X118029534Y-79299456D01*
X118058912Y-79357114D01*
X118115473Y-79468124D01*
X118115474Y-79468126D01*
X118181301Y-79549414D01*
X118234608Y-79615242D01*
X118315896Y-79681068D01*
X118381723Y-79734375D01*
X118381725Y-79734376D01*
X118437229Y-79762656D01*
X118550394Y-79820316D01*
X118733247Y-79869312D01*
X118811875Y-79875500D01*
X119738024Y-79875499D01*
X119816653Y-79869312D01*
X119999506Y-79820316D01*
X120168176Y-79734375D01*
X120315292Y-79615242D01*
X120434425Y-79468126D01*
X120434744Y-79467500D01*
X120435025Y-79467201D01*
X120437964Y-79462677D01*
X120438791Y-79463214D01*
X120482718Y-79416703D01*
X120550538Y-79399907D01*
X120616674Y-79422443D01*
X120651680Y-79462843D01*
X120652357Y-79462404D01*
X120655518Y-79467271D01*
X120655715Y-79467499D01*
X120655894Y-79467851D01*
X120655896Y-79467854D01*
X120774963Y-79614886D01*
X120921995Y-79733953D01*
X120921998Y-79733955D01*
X121090575Y-79819848D01*
X121273327Y-79868816D01*
X121351896Y-79874999D01*
X121351910Y-79875000D01*
X121564950Y-79875000D01*
X122064950Y-79875000D01*
X122277990Y-79875000D01*
X122278003Y-79874999D01*
X122356572Y-79868816D01*
X122539324Y-79819848D01*
X122707901Y-79733955D01*
X122707904Y-79733953D01*
X122854936Y-79614886D01*
X122974003Y-79467854D01*
X122974005Y-79467851D01*
X123059898Y-79299274D01*
X123108866Y-79116522D01*
X123115049Y-79037953D01*
X123115050Y-79037940D01*
X123115050Y-78325000D01*
X122064950Y-78325000D01*
X122064950Y-79875000D01*
X121564950Y-79875000D01*
X121564950Y-77790686D01*
X121569344Y-77795080D01*
X121660556Y-77847741D01*
X121762289Y-77875000D01*
X121867611Y-77875000D01*
X121969344Y-77847741D01*
X122060556Y-77795080D01*
X122064950Y-77790686D01*
X122064950Y-77825000D01*
X123115050Y-77825000D01*
X123115050Y-77112059D01*
X123115049Y-77112046D01*
X123108866Y-77033477D01*
X123059898Y-76850725D01*
X122974005Y-76682148D01*
X122974003Y-76682145D01*
X122854936Y-76535113D01*
X122707904Y-76416046D01*
X122707901Y-76416044D01*
X122539324Y-76330151D01*
X122356572Y-76281183D01*
X122278003Y-76275000D01*
X122064950Y-76275000D01*
X122064950Y-77159314D01*
X122060556Y-77154920D01*
X121969344Y-77102259D01*
X121867611Y-77075000D01*
X121762289Y-77075000D01*
X121660556Y-77102259D01*
X121569344Y-77154920D01*
X121564950Y-77159314D01*
X121564950Y-76275000D01*
X121351896Y-76275000D01*
X121273327Y-76281183D01*
X121090575Y-76330151D01*
X120921998Y-76416044D01*
X120921995Y-76416046D01*
X120774963Y-76535113D01*
X120655896Y-76682145D01*
X120655892Y-76682151D01*
X120655711Y-76682508D01*
X120655551Y-76682677D01*
X120652357Y-76687596D01*
X120651457Y-76687011D01*
X120607734Y-76733301D01*
X120539912Y-76750092D01*
X120473778Y-76727550D01*
X120438576Y-76686924D01*
X120437964Y-76687323D01*
X120435098Y-76682910D01*
X120434748Y-76682506D01*
X120434427Y-76681877D01*
X120434425Y-76681873D01*
X120381118Y-76616046D01*
X120315292Y-76534758D01*
X120249464Y-76481451D01*
X120168176Y-76415624D01*
X120168174Y-76415623D01*
X120057164Y-76359062D01*
X119999506Y-76329684D01*
X119932574Y-76311749D01*
X119816651Y-76280687D01*
X119744378Y-76275000D01*
X119738025Y-76274500D01*
X119738024Y-76274500D01*
X118811885Y-76274500D01*
X118811866Y-76274501D01*
X118733250Y-76280687D01*
X118550394Y-76329684D01*
X118381725Y-76415623D01*
X118381723Y-76415624D01*
X118234608Y-76534758D01*
X118115474Y-76681873D01*
X118115473Y-76681875D01*
X118029534Y-76850544D01*
X117980537Y-77033398D01*
X117974350Y-77112019D01*
X85670500Y-77112019D01*
X85670500Y-74531902D01*
X140419500Y-74531902D01*
X140419500Y-74768097D01*
X140456446Y-75001368D01*
X140529433Y-75225996D01*
X140636657Y-75436433D01*
X140775483Y-75627510D01*
X140942490Y-75794517D01*
X141133567Y-75933343D01*
X141232991Y-75984002D01*
X141344003Y-76040566D01*
X141344005Y-76040566D01*
X141344008Y-76040568D01*
X141464412Y-76079689D01*
X141568631Y-76113553D01*
X141801903Y-76150500D01*
X141801908Y-76150500D01*
X142038097Y-76150500D01*
X142271368Y-76113553D01*
X142272870Y-76113065D01*
X142495992Y-76040568D01*
X142706433Y-75933343D01*
X142897510Y-75794517D01*
X143064517Y-75627510D01*
X143109267Y-75565915D01*
X143113680Y-75561031D01*
X143138059Y-75546063D01*
X143160711Y-75528596D01*
X143168343Y-75527470D01*
X143173223Y-75524475D01*
X143186770Y-75524753D01*
X143192543Y-75523902D01*
X143896212Y-74820233D01*
X143907482Y-74862292D01*
X143979890Y-74987708D01*
X144082292Y-75090110D01*
X144207708Y-75162518D01*
X144249765Y-75173787D01*
X143550893Y-75872658D01*
X143633828Y-75932914D01*
X143844197Y-76040102D01*
X144068752Y-76113065D01*
X144068751Y-76113065D01*
X144301948Y-76150000D01*
X144538052Y-76150000D01*
X144771247Y-76113065D01*
X144995802Y-76040102D01*
X145206163Y-75932918D01*
X145206169Y-75932914D01*
X145289104Y-75872658D01*
X145289105Y-75872658D01*
X144590233Y-75173787D01*
X144632292Y-75162518D01*
X144757708Y-75090110D01*
X144860110Y-74987708D01*
X144932518Y-74862292D01*
X144943787Y-74820234D01*
X145649270Y-75525717D01*
X145692943Y-75534891D01*
X145734614Y-75571259D01*
X145775483Y-75627510D01*
X145942490Y-75794517D01*
X146133567Y-75933343D01*
X146232991Y-75984002D01*
X146344003Y-76040566D01*
X146344005Y-76040566D01*
X146344008Y-76040568D01*
X146464412Y-76079689D01*
X146568631Y-76113553D01*
X146801903Y-76150500D01*
X146801908Y-76150500D01*
X147038097Y-76150500D01*
X147271368Y-76113553D01*
X147272870Y-76113065D01*
X147495992Y-76040568D01*
X147706433Y-75933343D01*
X147897510Y-75794517D01*
X148064517Y-75627510D01*
X148203343Y-75436433D01*
X148310568Y-75225992D01*
X148383553Y-75001368D01*
X148401102Y-74890568D01*
X148420500Y-74768097D01*
X148420500Y-74531902D01*
X148383553Y-74298631D01*
X148311214Y-74075996D01*
X148310568Y-74074008D01*
X148310566Y-74074005D01*
X148310566Y-74074003D01*
X148203342Y-73863566D01*
X148139791Y-73776096D01*
X148064517Y-73672490D01*
X147897510Y-73505483D01*
X147727416Y-73381902D01*
X153999500Y-73381902D01*
X153999500Y-73618097D01*
X154036446Y-73851368D01*
X154109433Y-74075996D01*
X154177656Y-74209890D01*
X154216657Y-74286433D01*
X154355483Y-74477510D01*
X154522490Y-74644517D01*
X154713567Y-74783343D01*
X154812991Y-74834002D01*
X154924003Y-74890566D01*
X154924005Y-74890566D01*
X154924008Y-74890568D01*
X155044412Y-74929689D01*
X155148631Y-74963553D01*
X155381903Y-75000500D01*
X155381908Y-75000500D01*
X155618097Y-75000500D01*
X155851368Y-74963553D01*
X156075992Y-74890568D01*
X156286433Y-74783343D01*
X156477510Y-74644517D01*
X156644517Y-74477510D01*
X156783343Y-74286433D01*
X156890568Y-74075992D01*
X156963553Y-73851368D01*
X156977216Y-73765105D01*
X157000500Y-73618097D01*
X157000500Y-73381902D01*
X160499500Y-73381902D01*
X160499500Y-73618097D01*
X160536446Y-73851368D01*
X160609433Y-74075996D01*
X160677656Y-74209890D01*
X160716657Y-74286433D01*
X160855483Y-74477510D01*
X161022490Y-74644517D01*
X161213567Y-74783343D01*
X161312991Y-74834002D01*
X161424003Y-74890566D01*
X161424005Y-74890566D01*
X161424008Y-74890568D01*
X161544412Y-74929689D01*
X161648631Y-74963553D01*
X161881903Y-75000500D01*
X161881908Y-75000500D01*
X162118097Y-75000500D01*
X162351368Y-74963553D01*
X162575992Y-74890568D01*
X162786433Y-74783343D01*
X162977510Y-74644517D01*
X163144517Y-74477510D01*
X163283343Y-74286433D01*
X163390568Y-74075992D01*
X163463553Y-73851368D01*
X163477216Y-73765105D01*
X163500500Y-73618097D01*
X163500500Y-73381902D01*
X163463553Y-73148631D01*
X163390566Y-72924003D01*
X163283342Y-72713566D01*
X163144517Y-72522490D01*
X162977510Y-72355483D01*
X162786433Y-72216657D01*
X162575996Y-72109433D01*
X162351368Y-72036446D01*
X162118097Y-71999500D01*
X162118092Y-71999500D01*
X161881908Y-71999500D01*
X161881903Y-71999500D01*
X161648631Y-72036446D01*
X161424003Y-72109433D01*
X161213566Y-72216657D01*
X161104550Y-72295862D01*
X161022490Y-72355483D01*
X161022488Y-72355485D01*
X161022487Y-72355485D01*
X160855485Y-72522487D01*
X160855485Y-72522488D01*
X160855483Y-72522490D01*
X160795862Y-72604550D01*
X160716657Y-72713566D01*
X160609433Y-72924003D01*
X160536446Y-73148631D01*
X160499500Y-73381902D01*
X157000500Y-73381902D01*
X156963553Y-73148631D01*
X156890566Y-72924003D01*
X156783342Y-72713566D01*
X156644517Y-72522490D01*
X156477510Y-72355483D01*
X156286433Y-72216657D01*
X156075996Y-72109433D01*
X155851368Y-72036446D01*
X155618097Y-71999500D01*
X155618092Y-71999500D01*
X155381908Y-71999500D01*
X155381903Y-71999500D01*
X155148631Y-72036446D01*
X154924003Y-72109433D01*
X154713566Y-72216657D01*
X154604550Y-72295862D01*
X154522490Y-72355483D01*
X154522488Y-72355485D01*
X154522487Y-72355485D01*
X154355485Y-72522487D01*
X154355485Y-72522488D01*
X154355483Y-72522490D01*
X154295862Y-72604550D01*
X154216657Y-72713566D01*
X154109433Y-72924003D01*
X154036446Y-73148631D01*
X153999500Y-73381902D01*
X147727416Y-73381902D01*
X147706433Y-73366657D01*
X147495996Y-73259433D01*
X147271368Y-73186446D01*
X147038097Y-73149500D01*
X147038092Y-73149500D01*
X146801908Y-73149500D01*
X146801903Y-73149500D01*
X146568631Y-73186446D01*
X146344003Y-73259433D01*
X146133566Y-73366657D01*
X146050047Y-73427338D01*
X145942490Y-73505483D01*
X145942488Y-73505485D01*
X145942487Y-73505485D01*
X145775482Y-73672490D01*
X145734615Y-73728739D01*
X145679285Y-73771404D01*
X145647455Y-73776096D01*
X144943787Y-74479765D01*
X144932518Y-74437708D01*
X144860110Y-74312292D01*
X144757708Y-74209890D01*
X144632292Y-74137482D01*
X144590234Y-74126212D01*
X145289105Y-73427340D01*
X145289104Y-73427338D01*
X145206174Y-73367087D01*
X144995802Y-73259897D01*
X144771247Y-73186934D01*
X144771248Y-73186934D01*
X144538052Y-73150000D01*
X144301948Y-73150000D01*
X144068752Y-73186934D01*
X143844197Y-73259897D01*
X143633830Y-73367084D01*
X143550894Y-73427340D01*
X144249766Y-74126212D01*
X144207708Y-74137482D01*
X144082292Y-74209890D01*
X143979890Y-74312292D01*
X143907482Y-74437708D01*
X143896212Y-74479765D01*
X143191809Y-73775363D01*
X143177862Y-73771577D01*
X143147052Y-73765105D01*
X143143361Y-73762214D01*
X143140824Y-73761526D01*
X143131673Y-73753060D01*
X143113680Y-73738968D01*
X143109264Y-73734079D01*
X143064517Y-73672490D01*
X142897510Y-73505483D01*
X142706433Y-73366657D01*
X142495996Y-73259433D01*
X142271368Y-73186446D01*
X142038097Y-73149500D01*
X142038092Y-73149500D01*
X141801908Y-73149500D01*
X141801903Y-73149500D01*
X141568631Y-73186446D01*
X141344003Y-73259433D01*
X141133566Y-73366657D01*
X141050047Y-73427338D01*
X140942490Y-73505483D01*
X140942488Y-73505485D01*
X140942487Y-73505485D01*
X140775485Y-73672487D01*
X140775485Y-73672488D01*
X140775483Y-73672490D01*
X140734616Y-73728739D01*
X140636657Y-73863566D01*
X140529433Y-74074003D01*
X140456446Y-74298631D01*
X140419500Y-74531902D01*
X85670500Y-74531902D01*
X85670500Y-66285258D01*
X137589500Y-66285258D01*
X137589500Y-68014741D01*
X137604793Y-68130893D01*
X137619452Y-68242238D01*
X137619453Y-68242240D01*
X137678842Y-68463887D01*
X137766650Y-68675876D01*
X137766657Y-68675890D01*
X137881392Y-68874617D01*
X138021081Y-69056661D01*
X138021089Y-69056670D01*
X138183330Y-69218911D01*
X138183338Y-69218918D01*
X138365382Y-69358607D01*
X138365385Y-69358608D01*
X138365388Y-69358611D01*
X138564112Y-69473344D01*
X138564117Y-69473346D01*
X138564123Y-69473349D01*
X138655480Y-69511190D01*
X138776113Y-69561158D01*
X138997762Y-69620548D01*
X139225266Y-69650500D01*
X139225273Y-69650500D01*
X139454727Y-69650500D01*
X139454734Y-69650500D01*
X139682238Y-69620548D01*
X139903887Y-69561158D01*
X140115888Y-69473344D01*
X140314612Y-69358611D01*
X140496661Y-69218919D01*
X140496665Y-69218914D01*
X140496670Y-69218911D01*
X140658911Y-69056670D01*
X140658914Y-69056665D01*
X140658919Y-69056661D01*
X140798611Y-68874612D01*
X140913344Y-68675888D01*
X141001158Y-68463887D01*
X141060548Y-68242238D01*
X141090500Y-68014734D01*
X141090500Y-66285266D01*
X141090499Y-66285258D01*
X147749500Y-66285258D01*
X147749500Y-68014741D01*
X147764793Y-68130893D01*
X147779452Y-68242238D01*
X147779453Y-68242240D01*
X147838842Y-68463887D01*
X147926650Y-68675876D01*
X147926657Y-68675890D01*
X148041392Y-68874617D01*
X148181081Y-69056661D01*
X148181089Y-69056670D01*
X148343330Y-69218911D01*
X148343338Y-69218918D01*
X148525382Y-69358607D01*
X148525385Y-69358608D01*
X148525388Y-69358611D01*
X148724112Y-69473344D01*
X148724117Y-69473346D01*
X148724123Y-69473349D01*
X148815480Y-69511190D01*
X148936113Y-69561158D01*
X149157762Y-69620548D01*
X149385266Y-69650500D01*
X149385273Y-69650500D01*
X149614727Y-69650500D01*
X149614734Y-69650500D01*
X149842238Y-69620548D01*
X150063887Y-69561158D01*
X150275888Y-69473344D01*
X150474612Y-69358611D01*
X150656661Y-69218919D01*
X150656665Y-69218914D01*
X150656670Y-69218911D01*
X150818911Y-69056670D01*
X150818914Y-69056665D01*
X150818919Y-69056661D01*
X150952983Y-68881947D01*
X154000000Y-68881947D01*
X154000000Y-69118052D01*
X154036934Y-69351247D01*
X154109897Y-69575802D01*
X154217087Y-69786174D01*
X154277338Y-69869104D01*
X154277340Y-69869105D01*
X154976212Y-69170233D01*
X154987482Y-69212292D01*
X155059890Y-69337708D01*
X155162292Y-69440110D01*
X155287708Y-69512518D01*
X155329765Y-69523787D01*
X154630893Y-70222658D01*
X154713828Y-70282914D01*
X154924197Y-70390102D01*
X155148752Y-70463065D01*
X155148751Y-70463065D01*
X155381948Y-70500000D01*
X155618052Y-70500000D01*
X155851247Y-70463065D01*
X156075802Y-70390102D01*
X156286163Y-70282918D01*
X156286169Y-70282914D01*
X156369104Y-70222658D01*
X156369105Y-70222658D01*
X155670233Y-69523787D01*
X155712292Y-69512518D01*
X155837708Y-69440110D01*
X155940110Y-69337708D01*
X156012518Y-69212292D01*
X156023787Y-69170234D01*
X156722658Y-69869105D01*
X156722658Y-69869104D01*
X156782914Y-69786169D01*
X156782918Y-69786163D01*
X156890102Y-69575802D01*
X156963065Y-69351247D01*
X157000000Y-69118052D01*
X157000000Y-68881947D01*
X160500000Y-68881947D01*
X160500000Y-69118052D01*
X160536934Y-69351247D01*
X160609897Y-69575802D01*
X160717087Y-69786174D01*
X160777338Y-69869104D01*
X160777340Y-69869105D01*
X161476212Y-69170233D01*
X161487482Y-69212292D01*
X161559890Y-69337708D01*
X161662292Y-69440110D01*
X161787708Y-69512518D01*
X161829765Y-69523787D01*
X161130893Y-70222658D01*
X161213828Y-70282914D01*
X161424197Y-70390102D01*
X161648752Y-70463065D01*
X161648751Y-70463065D01*
X161881948Y-70500000D01*
X162118052Y-70500000D01*
X162351247Y-70463065D01*
X162575802Y-70390102D01*
X162786163Y-70282918D01*
X162786169Y-70282914D01*
X162869104Y-70222658D01*
X162869105Y-70222658D01*
X162170233Y-69523787D01*
X162212292Y-69512518D01*
X162337708Y-69440110D01*
X162440110Y-69337708D01*
X162512518Y-69212292D01*
X162523787Y-69170233D01*
X163222658Y-69869105D01*
X163222658Y-69869104D01*
X163282914Y-69786169D01*
X163282918Y-69786163D01*
X163390102Y-69575802D01*
X163463065Y-69351247D01*
X163500000Y-69118052D01*
X163500000Y-68881947D01*
X163463065Y-68648752D01*
X163390102Y-68424197D01*
X163282914Y-68213828D01*
X163222658Y-68130894D01*
X163222658Y-68130893D01*
X162523787Y-68829765D01*
X162512518Y-68787708D01*
X162440110Y-68662292D01*
X162337708Y-68559890D01*
X162212292Y-68487482D01*
X162170234Y-68476212D01*
X162869105Y-67777340D01*
X162869104Y-67777338D01*
X162786174Y-67717087D01*
X162575802Y-67609897D01*
X162351247Y-67536934D01*
X162351248Y-67536934D01*
X162118052Y-67500000D01*
X161881948Y-67500000D01*
X161648752Y-67536934D01*
X161424197Y-67609897D01*
X161213830Y-67717084D01*
X161130894Y-67777340D01*
X161829766Y-68476212D01*
X161787708Y-68487482D01*
X161662292Y-68559890D01*
X161559890Y-68662292D01*
X161487482Y-68787708D01*
X161476212Y-68829766D01*
X160777340Y-68130894D01*
X160717084Y-68213830D01*
X160609897Y-68424197D01*
X160536934Y-68648752D01*
X160500000Y-68881947D01*
X157000000Y-68881947D01*
X156963065Y-68648752D01*
X156890102Y-68424197D01*
X156782914Y-68213828D01*
X156722658Y-68130894D01*
X156722658Y-68130893D01*
X156023787Y-68829765D01*
X156012518Y-68787708D01*
X155940110Y-68662292D01*
X155837708Y-68559890D01*
X155712292Y-68487482D01*
X155670234Y-68476212D01*
X156369105Y-67777340D01*
X156369104Y-67777339D01*
X156286174Y-67717087D01*
X156075802Y-67609897D01*
X155851247Y-67536934D01*
X155851248Y-67536934D01*
X155618052Y-67500000D01*
X155381948Y-67500000D01*
X155148752Y-67536934D01*
X154924197Y-67609897D01*
X154713830Y-67717084D01*
X154630894Y-67777340D01*
X155329766Y-68476212D01*
X155287708Y-68487482D01*
X155162292Y-68559890D01*
X155059890Y-68662292D01*
X154987482Y-68787708D01*
X154976212Y-68829766D01*
X154277340Y-68130894D01*
X154217084Y-68213830D01*
X154109897Y-68424197D01*
X154036934Y-68648752D01*
X154000000Y-68881947D01*
X150952983Y-68881947D01*
X150958611Y-68874612D01*
X151073344Y-68675888D01*
X151161158Y-68463887D01*
X151220548Y-68242238D01*
X151250500Y-68014734D01*
X151250500Y-66285266D01*
X151220548Y-66057762D01*
X151161158Y-65836113D01*
X151073344Y-65624112D01*
X150958611Y-65425388D01*
X150958608Y-65425385D01*
X150958607Y-65425382D01*
X150818918Y-65243338D01*
X150818911Y-65243330D01*
X150656670Y-65081089D01*
X150656661Y-65081081D01*
X150474617Y-64941392D01*
X150275890Y-64826657D01*
X150275876Y-64826650D01*
X150063887Y-64738842D01*
X149842238Y-64679452D01*
X149804215Y-64674446D01*
X149614741Y-64649500D01*
X149614734Y-64649500D01*
X149385266Y-64649500D01*
X149385258Y-64649500D01*
X149168715Y-64678009D01*
X149157762Y-64679452D01*
X149064076Y-64704554D01*
X148936112Y-64738842D01*
X148724123Y-64826650D01*
X148724109Y-64826657D01*
X148525382Y-64941392D01*
X148343338Y-65081081D01*
X148181081Y-65243338D01*
X148041392Y-65425382D01*
X147926657Y-65624109D01*
X147926650Y-65624123D01*
X147838842Y-65836112D01*
X147779453Y-66057759D01*
X147779451Y-66057770D01*
X147749500Y-66285258D01*
X141090499Y-66285258D01*
X141060548Y-66057762D01*
X141001158Y-65836113D01*
X140913344Y-65624112D01*
X140798611Y-65425388D01*
X140798608Y-65425385D01*
X140798607Y-65425382D01*
X140658918Y-65243338D01*
X140658911Y-65243330D01*
X140496670Y-65081089D01*
X140496661Y-65081081D01*
X140314617Y-64941392D01*
X140115890Y-64826657D01*
X140115876Y-64826650D01*
X139903887Y-64738842D01*
X139682238Y-64679452D01*
X139644215Y-64674446D01*
X139454741Y-64649500D01*
X139454734Y-64649500D01*
X139225266Y-64649500D01*
X139225258Y-64649500D01*
X139008715Y-64678009D01*
X138997762Y-64679452D01*
X138904076Y-64704554D01*
X138776112Y-64738842D01*
X138564123Y-64826650D01*
X138564109Y-64826657D01*
X138365382Y-64941392D01*
X138183338Y-65081081D01*
X138021081Y-65243338D01*
X137881392Y-65425382D01*
X137766657Y-65624109D01*
X137766650Y-65624123D01*
X137678842Y-65836112D01*
X137619453Y-66057759D01*
X137619451Y-66057770D01*
X137589500Y-66285258D01*
X85670500Y-66285258D01*
X85670500Y-60672019D01*
X102734350Y-60672019D01*
X102734350Y-62597964D01*
X102734351Y-62597983D01*
X102740537Y-62676599D01*
X102740538Y-62676601D01*
X102740538Y-62676603D01*
X102789534Y-62859456D01*
X102818912Y-62917114D01*
X102875473Y-63028124D01*
X102875474Y-63028126D01*
X102941301Y-63109414D01*
X102994608Y-63175242D01*
X103075896Y-63241068D01*
X103141723Y-63294375D01*
X103141725Y-63294376D01*
X103197229Y-63322656D01*
X103310394Y-63380316D01*
X103493247Y-63429312D01*
X103571875Y-63435500D01*
X104498024Y-63435499D01*
X104576653Y-63429312D01*
X104759506Y-63380316D01*
X104928176Y-63294375D01*
X105075292Y-63175242D01*
X105194425Y-63028126D01*
X105194462Y-63028052D01*
X105194496Y-63028016D01*
X105197964Y-63022677D01*
X105198940Y-63023310D01*
X105242434Y-62977255D01*
X105310254Y-62960455D01*
X105376390Y-62982989D01*
X105411196Y-63023157D01*
X105411936Y-63022677D01*
X105415394Y-63028002D01*
X105415438Y-63028053D01*
X105415476Y-63028128D01*
X105467115Y-63091896D01*
X105534608Y-63175242D01*
X105615896Y-63241068D01*
X105681723Y-63294375D01*
X105681725Y-63294376D01*
X105737229Y-63322656D01*
X105850394Y-63380316D01*
X106033247Y-63429312D01*
X106111875Y-63435500D01*
X107038024Y-63435499D01*
X107116653Y-63429312D01*
X107299506Y-63380316D01*
X107468176Y-63294375D01*
X107615292Y-63175242D01*
X107734425Y-63028126D01*
X107734462Y-63028052D01*
X107734496Y-63028016D01*
X107737964Y-63022677D01*
X107738940Y-63023310D01*
X107782434Y-62977255D01*
X107850254Y-62960455D01*
X107916390Y-62982989D01*
X107951196Y-63023157D01*
X107951936Y-63022677D01*
X107955394Y-63028002D01*
X107955438Y-63028053D01*
X107955476Y-63028128D01*
X108007115Y-63091896D01*
X108074608Y-63175242D01*
X108155896Y-63241068D01*
X108221723Y-63294375D01*
X108221725Y-63294376D01*
X108277229Y-63322656D01*
X108390394Y-63380316D01*
X108573247Y-63429312D01*
X108651875Y-63435500D01*
X109578024Y-63435499D01*
X109656653Y-63429312D01*
X109839506Y-63380316D01*
X110008176Y-63294375D01*
X110155292Y-63175242D01*
X110274425Y-63028126D01*
X110274462Y-63028052D01*
X110274496Y-63028016D01*
X110277964Y-63022677D01*
X110278940Y-63023310D01*
X110322434Y-62977255D01*
X110390254Y-62960455D01*
X110456390Y-62982989D01*
X110491196Y-63023157D01*
X110491936Y-63022677D01*
X110495394Y-63028002D01*
X110495438Y-63028053D01*
X110495476Y-63028128D01*
X110547115Y-63091896D01*
X110614608Y-63175242D01*
X110695896Y-63241068D01*
X110761723Y-63294375D01*
X110761725Y-63294376D01*
X110817229Y-63322656D01*
X110930394Y-63380316D01*
X111113247Y-63429312D01*
X111191875Y-63435500D01*
X112118024Y-63435499D01*
X112196653Y-63429312D01*
X112379506Y-63380316D01*
X112548176Y-63294375D01*
X112695292Y-63175242D01*
X112814425Y-63028126D01*
X112900366Y-62859456D01*
X112949362Y-62676603D01*
X112955550Y-62597975D01*
X112955549Y-60672026D01*
X112955545Y-60671973D01*
X120514450Y-60671973D01*
X120514450Y-62598010D01*
X120514451Y-62598029D01*
X120520637Y-62676643D01*
X120520638Y-62676645D01*
X120569630Y-62859488D01*
X120591733Y-62902868D01*
X120655564Y-63028146D01*
X120704809Y-63088958D01*
X120774693Y-63175257D01*
X120881261Y-63261554D01*
X120921803Y-63294385D01*
X121005321Y-63336938D01*
X121090462Y-63380320D01*
X121273305Y-63429312D01*
X121351929Y-63435500D01*
X122277970Y-63435499D01*
X122356595Y-63429312D01*
X122539438Y-63380320D01*
X122667958Y-63314835D01*
X122708096Y-63294385D01*
X122708097Y-63294383D01*
X122708099Y-63294383D01*
X122855207Y-63175257D01*
X122974333Y-63028149D01*
X122974464Y-63027892D01*
X122974580Y-63027768D01*
X122977875Y-63022696D01*
X122978802Y-63023298D01*
X123022438Y-62977095D01*
X123090259Y-62960299D01*
X123156394Y-62982835D01*
X123191326Y-63023149D01*
X123192025Y-63022696D01*
X123195290Y-63027724D01*
X123195436Y-63027892D01*
X123195567Y-63028149D01*
X123314693Y-63175257D01*
X123421261Y-63261554D01*
X123461803Y-63294385D01*
X123545321Y-63336938D01*
X123630462Y-63380320D01*
X123813305Y-63429312D01*
X123891929Y-63435500D01*
X124817970Y-63435499D01*
X124896595Y-63429312D01*
X125079438Y-63380320D01*
X125207958Y-63314835D01*
X125248096Y-63294385D01*
X125248097Y-63294383D01*
X125248099Y-63294383D01*
X125395207Y-63175257D01*
X125514333Y-63028149D01*
X125514528Y-63027768D01*
X125540346Y-62977095D01*
X125600270Y-62859488D01*
X125649262Y-62676645D01*
X125655450Y-62598021D01*
X125655449Y-60671980D01*
X125649262Y-60593355D01*
X125600270Y-60410512D01*
X125537419Y-60287159D01*
X125514335Y-60241853D01*
X125439953Y-60150000D01*
X125395207Y-60094743D01*
X125317661Y-60031947D01*
X125317605Y-60031902D01*
X140419500Y-60031902D01*
X140419500Y-60268097D01*
X140456446Y-60501368D01*
X140529433Y-60725996D01*
X140636519Y-60936163D01*
X140636657Y-60936433D01*
X140775483Y-61127510D01*
X140942490Y-61294517D01*
X141133567Y-61433343D01*
X141232991Y-61484002D01*
X141344003Y-61540566D01*
X141344005Y-61540566D01*
X141344008Y-61540568D01*
X141464412Y-61579689D01*
X141568631Y-61613553D01*
X141801903Y-61650500D01*
X141801908Y-61650500D01*
X142038097Y-61650500D01*
X142271368Y-61613553D01*
X142272870Y-61613065D01*
X142495992Y-61540568D01*
X142706433Y-61433343D01*
X142897510Y-61294517D01*
X143064517Y-61127510D01*
X143203343Y-60936433D01*
X143310568Y-60725992D01*
X143383553Y-60501368D01*
X143397943Y-60410512D01*
X143420500Y-60268097D01*
X143420500Y-60031947D01*
X145420000Y-60031947D01*
X145420000Y-60268052D01*
X145456934Y-60501247D01*
X145529897Y-60725802D01*
X145637087Y-60936174D01*
X145697338Y-61019104D01*
X145697340Y-61019105D01*
X146396212Y-60320233D01*
X146407482Y-60362292D01*
X146479890Y-60487708D01*
X146582292Y-60590110D01*
X146707708Y-60662518D01*
X146749765Y-60673787D01*
X146050893Y-61372658D01*
X146133828Y-61432914D01*
X146344197Y-61540102D01*
X146568752Y-61613065D01*
X146568751Y-61613065D01*
X146801948Y-61650000D01*
X147038052Y-61650000D01*
X147271247Y-61613065D01*
X147495802Y-61540102D01*
X147706163Y-61432918D01*
X147706169Y-61432914D01*
X147789104Y-61372658D01*
X147789105Y-61372658D01*
X147090233Y-60673787D01*
X147132292Y-60662518D01*
X147257708Y-60590110D01*
X147360110Y-60487708D01*
X147432518Y-60362292D01*
X147443787Y-60320234D01*
X148142658Y-61019105D01*
X148142658Y-61019104D01*
X148202914Y-60936169D01*
X148202918Y-60936163D01*
X148310102Y-60725802D01*
X148383065Y-60501247D01*
X148420000Y-60268052D01*
X148420000Y-60031947D01*
X148383065Y-59798752D01*
X148310102Y-59574197D01*
X148202914Y-59363828D01*
X148142658Y-59280894D01*
X148142658Y-59280893D01*
X147443787Y-59979765D01*
X147432518Y-59937708D01*
X147360110Y-59812292D01*
X147257708Y-59709890D01*
X147132292Y-59637482D01*
X147090234Y-59626212D01*
X147789105Y-58927340D01*
X147789104Y-58927338D01*
X147706174Y-58867087D01*
X147495802Y-58759897D01*
X147271247Y-58686934D01*
X147271248Y-58686934D01*
X147038052Y-58650000D01*
X146801948Y-58650000D01*
X146568752Y-58686934D01*
X146344197Y-58759897D01*
X146133830Y-58867084D01*
X146050894Y-58927340D01*
X146749766Y-59626212D01*
X146707708Y-59637482D01*
X146582292Y-59709890D01*
X146479890Y-59812292D01*
X146407482Y-59937708D01*
X146396212Y-59979766D01*
X145697340Y-59280894D01*
X145637084Y-59363830D01*
X145529897Y-59574197D01*
X145456934Y-59798752D01*
X145420000Y-60031947D01*
X143420500Y-60031947D01*
X143420500Y-60031902D01*
X143383553Y-59798631D01*
X143310566Y-59574003D01*
X143203477Y-59363830D01*
X143203343Y-59363567D01*
X143064517Y-59172490D01*
X142897510Y-59005483D01*
X142706433Y-58866657D01*
X142495996Y-58759433D01*
X142271368Y-58686446D01*
X142038097Y-58649500D01*
X142038092Y-58649500D01*
X141801908Y-58649500D01*
X141801903Y-58649500D01*
X141568631Y-58686446D01*
X141344003Y-58759433D01*
X141133566Y-58866657D01*
X141050047Y-58927338D01*
X140942490Y-59005483D01*
X140942488Y-59005485D01*
X140942487Y-59005485D01*
X140775485Y-59172487D01*
X140775485Y-59172488D01*
X140775483Y-59172490D01*
X140715862Y-59254550D01*
X140636657Y-59363566D01*
X140529433Y-59574003D01*
X140456446Y-59798631D01*
X140419500Y-60031902D01*
X125317605Y-60031902D01*
X125248096Y-59975614D01*
X125122818Y-59911783D01*
X125079438Y-59889680D01*
X125012512Y-59871747D01*
X124896593Y-59840687D01*
X124824686Y-59835028D01*
X124817971Y-59834500D01*
X124817970Y-59834500D01*
X123891939Y-59834500D01*
X123891920Y-59834501D01*
X123813306Y-59840687D01*
X123630462Y-59889680D01*
X123461803Y-59975614D01*
X123314693Y-60094743D01*
X123195563Y-60241855D01*
X123195432Y-60242114D01*
X123195315Y-60242237D01*
X123192025Y-60247304D01*
X123191098Y-60246702D01*
X123147455Y-60292908D01*
X123079633Y-60309700D01*
X123013499Y-60287159D01*
X122978572Y-60246850D01*
X122977875Y-60247304D01*
X122974613Y-60242281D01*
X122974468Y-60242114D01*
X122974336Y-60241855D01*
X122958589Y-60222409D01*
X122855207Y-60094743D01*
X122768908Y-60024859D01*
X122708096Y-59975614D01*
X122582818Y-59911783D01*
X122539438Y-59889680D01*
X122472512Y-59871747D01*
X122356593Y-59840687D01*
X122284686Y-59835028D01*
X122277971Y-59834500D01*
X122277970Y-59834500D01*
X121351939Y-59834500D01*
X121351920Y-59834501D01*
X121273306Y-59840687D01*
X121090462Y-59889680D01*
X120921803Y-59975614D01*
X120774693Y-60094743D01*
X120655564Y-60241853D01*
X120569630Y-60410512D01*
X120520637Y-60593356D01*
X120520637Y-60593357D01*
X120514450Y-60671973D01*
X112955545Y-60671973D01*
X112949362Y-60593397D01*
X112900366Y-60410544D01*
X112827784Y-60268092D01*
X112814426Y-60241875D01*
X112814425Y-60241873D01*
X112740026Y-60150000D01*
X112695292Y-60094758D01*
X112629464Y-60041451D01*
X112548176Y-59975624D01*
X112548174Y-59975623D01*
X112437164Y-59919062D01*
X112379506Y-59889684D01*
X112312574Y-59871749D01*
X112196651Y-59840687D01*
X112124740Y-59835028D01*
X112118025Y-59834500D01*
X112118024Y-59834500D01*
X111191885Y-59834500D01*
X111191866Y-59834501D01*
X111113250Y-59840687D01*
X110930394Y-59889684D01*
X110761725Y-59975623D01*
X110761723Y-59975624D01*
X110614608Y-60094758D01*
X110495474Y-60241873D01*
X110495434Y-60241953D01*
X110495399Y-60241989D01*
X110491936Y-60247323D01*
X110490960Y-60246689D01*
X110447459Y-60292749D01*
X110379638Y-60309543D01*
X110313503Y-60287005D01*
X110278703Y-60246843D01*
X110277964Y-60247323D01*
X110274509Y-60242002D01*
X110274466Y-60241953D01*
X110274426Y-60241875D01*
X110274425Y-60241873D01*
X110200026Y-60150000D01*
X110155292Y-60094758D01*
X110089464Y-60041451D01*
X110008176Y-59975624D01*
X110008174Y-59975623D01*
X109897164Y-59919062D01*
X109839506Y-59889684D01*
X109772574Y-59871749D01*
X109656651Y-59840687D01*
X109584740Y-59835028D01*
X109578025Y-59834500D01*
X109578024Y-59834500D01*
X108651885Y-59834500D01*
X108651866Y-59834501D01*
X108573250Y-59840687D01*
X108390394Y-59889684D01*
X108221725Y-59975623D01*
X108221723Y-59975624D01*
X108074608Y-60094758D01*
X107955474Y-60241873D01*
X107955434Y-60241953D01*
X107955399Y-60241989D01*
X107951936Y-60247323D01*
X107950960Y-60246689D01*
X107907459Y-60292749D01*
X107839638Y-60309543D01*
X107773503Y-60287005D01*
X107738703Y-60246843D01*
X107737964Y-60247323D01*
X107734509Y-60242002D01*
X107734466Y-60241953D01*
X107734426Y-60241875D01*
X107734425Y-60241873D01*
X107660026Y-60150000D01*
X107615292Y-60094758D01*
X107549464Y-60041451D01*
X107468176Y-59975624D01*
X107468174Y-59975623D01*
X107357164Y-59919062D01*
X107299506Y-59889684D01*
X107232574Y-59871749D01*
X107116651Y-59840687D01*
X107044740Y-59835028D01*
X107038025Y-59834500D01*
X107038024Y-59834500D01*
X106111885Y-59834500D01*
X106111866Y-59834501D01*
X106033250Y-59840687D01*
X105850394Y-59889684D01*
X105681725Y-59975623D01*
X105681723Y-59975624D01*
X105534608Y-60094758D01*
X105415474Y-60241873D01*
X105415434Y-60241953D01*
X105415399Y-60241989D01*
X105411936Y-60247323D01*
X105410960Y-60246689D01*
X105367459Y-60292749D01*
X105299638Y-60309543D01*
X105233503Y-60287005D01*
X105198703Y-60246843D01*
X105197964Y-60247323D01*
X105194509Y-60242002D01*
X105194466Y-60241953D01*
X105194426Y-60241875D01*
X105194425Y-60241873D01*
X105120026Y-60150000D01*
X105075292Y-60094758D01*
X105009464Y-60041451D01*
X104928176Y-59975624D01*
X104928174Y-59975623D01*
X104817164Y-59919062D01*
X104759506Y-59889684D01*
X104692574Y-59871749D01*
X104576651Y-59840687D01*
X104504740Y-59835028D01*
X104498025Y-59834500D01*
X104498024Y-59834500D01*
X103571885Y-59834500D01*
X103571866Y-59834501D01*
X103493250Y-59840687D01*
X103310394Y-59889684D01*
X103141725Y-59975623D01*
X103141723Y-59975624D01*
X102994608Y-60094758D01*
X102875474Y-60241873D01*
X102875473Y-60241875D01*
X102789534Y-60410544D01*
X102740537Y-60593398D01*
X102734350Y-60672019D01*
X85670500Y-60672019D01*
X85670500Y-55528711D01*
X87319500Y-55528711D01*
X87319500Y-55771288D01*
X87351161Y-56011785D01*
X87413947Y-56246104D01*
X87506773Y-56470205D01*
X87506776Y-56470212D01*
X87628064Y-56680289D01*
X87628066Y-56680292D01*
X87628067Y-56680293D01*
X87775733Y-56872736D01*
X87775739Y-56872743D01*
X87947256Y-57044260D01*
X87947262Y-57044265D01*
X88139711Y-57191936D01*
X88349788Y-57313224D01*
X88573900Y-57406054D01*
X88808211Y-57468838D01*
X88988586Y-57492584D01*
X89048711Y-57500500D01*
X89048712Y-57500500D01*
X89291289Y-57500500D01*
X89339388Y-57494167D01*
X89531789Y-57468838D01*
X89766100Y-57406054D01*
X89990212Y-57313224D01*
X90200289Y-57191936D01*
X90392738Y-57044265D01*
X90564265Y-56872738D01*
X90711936Y-56680289D01*
X90833224Y-56470212D01*
X90926054Y-56246100D01*
X90988838Y-56011789D01*
X91020500Y-55771288D01*
X91020500Y-55528712D01*
X91020500Y-55528711D01*
X159319500Y-55528711D01*
X159319500Y-55771288D01*
X159351161Y-56011785D01*
X159413947Y-56246104D01*
X159506773Y-56470205D01*
X159506776Y-56470212D01*
X159628064Y-56680289D01*
X159628066Y-56680292D01*
X159628067Y-56680293D01*
X159775733Y-56872736D01*
X159775739Y-56872743D01*
X159947256Y-57044260D01*
X159947262Y-57044265D01*
X160139711Y-57191936D01*
X160349788Y-57313224D01*
X160573900Y-57406054D01*
X160808211Y-57468838D01*
X160988586Y-57492584D01*
X161048711Y-57500500D01*
X161048712Y-57500500D01*
X161291289Y-57500500D01*
X161339388Y-57494167D01*
X161531789Y-57468838D01*
X161766100Y-57406054D01*
X161990212Y-57313224D01*
X162200289Y-57191936D01*
X162392738Y-57044265D01*
X162564265Y-56872738D01*
X162711936Y-56680289D01*
X162833224Y-56470212D01*
X162926054Y-56246100D01*
X162988838Y-56011789D01*
X163020500Y-55771288D01*
X163020500Y-55528712D01*
X162988838Y-55288211D01*
X162926054Y-55053900D01*
X162833224Y-54829788D01*
X162711936Y-54619711D01*
X162635074Y-54519542D01*
X162564266Y-54427263D01*
X162564260Y-54427256D01*
X162392743Y-54255739D01*
X162392736Y-54255733D01*
X162200293Y-54108067D01*
X162200292Y-54108066D01*
X162200289Y-54108064D01*
X161990212Y-53986776D01*
X161990205Y-53986773D01*
X161766104Y-53893947D01*
X161621570Y-53855219D01*
X161531789Y-53831162D01*
X161531788Y-53831161D01*
X161531785Y-53831161D01*
X161291289Y-53799500D01*
X161291288Y-53799500D01*
X161048712Y-53799500D01*
X161048711Y-53799500D01*
X160808214Y-53831161D01*
X160573895Y-53893947D01*
X160349794Y-53986773D01*
X160349785Y-53986777D01*
X160139706Y-54108067D01*
X159947263Y-54255733D01*
X159947256Y-54255739D01*
X159775739Y-54427256D01*
X159775733Y-54427263D01*
X159628067Y-54619706D01*
X159506777Y-54829785D01*
X159506773Y-54829794D01*
X159413947Y-55053895D01*
X159351161Y-55288214D01*
X159319500Y-55528711D01*
X91020500Y-55528711D01*
X90988838Y-55288211D01*
X90926054Y-55053900D01*
X90833224Y-54829788D01*
X90711936Y-54619711D01*
X90635074Y-54519542D01*
X90564266Y-54427263D01*
X90564260Y-54427256D01*
X90392743Y-54255739D01*
X90392736Y-54255733D01*
X90200293Y-54108067D01*
X90200292Y-54108066D01*
X90200289Y-54108064D01*
X89990212Y-53986776D01*
X89990205Y-53986773D01*
X89766104Y-53893947D01*
X89621570Y-53855219D01*
X89531789Y-53831162D01*
X89531788Y-53831161D01*
X89531785Y-53831161D01*
X89291289Y-53799500D01*
X89291288Y-53799500D01*
X89048712Y-53799500D01*
X89048711Y-53799500D01*
X88808214Y-53831161D01*
X88573895Y-53893947D01*
X88349794Y-53986773D01*
X88349785Y-53986777D01*
X88139706Y-54108067D01*
X87947263Y-54255733D01*
X87947256Y-54255739D01*
X87775739Y-54427256D01*
X87775733Y-54427263D01*
X87628067Y-54619706D01*
X87506777Y-54829785D01*
X87506773Y-54829794D01*
X87413947Y-55053895D01*
X87351161Y-55288214D01*
X87319500Y-55528711D01*
X85670500Y-55528711D01*
X85670500Y-52250639D01*
X108397500Y-52250639D01*
X108397500Y-53449360D01*
X108428587Y-53645637D01*
X108489993Y-53834629D01*
X108489994Y-53834632D01*
X108567517Y-53986777D01*
X108580213Y-54011694D01*
X108697019Y-54172464D01*
X108837536Y-54312981D01*
X108998306Y-54429787D01*
X109085149Y-54474035D01*
X109175367Y-54520005D01*
X109175370Y-54520006D01*
X109269866Y-54550709D01*
X109364364Y-54581413D01*
X109560639Y-54612500D01*
X109560640Y-54612500D01*
X109759360Y-54612500D01*
X109759361Y-54612500D01*
X109955636Y-54581413D01*
X110144632Y-54520005D01*
X110321694Y-54429787D01*
X110482464Y-54312981D01*
X110622981Y-54172464D01*
X110739787Y-54011694D01*
X110819796Y-53854667D01*
X110867769Y-53803872D01*
X110935590Y-53787077D01*
X111001725Y-53809614D01*
X111040765Y-53854668D01*
X111120641Y-54011432D01*
X111237403Y-54172139D01*
X111237403Y-54172140D01*
X111377859Y-54312596D01*
X111538567Y-54429358D01*
X111715562Y-54519542D01*
X111904473Y-54580922D01*
X111950000Y-54588133D01*
X111950000Y-53638816D01*
X111966060Y-53654876D01*
X112052939Y-53705036D01*
X112149840Y-53731000D01*
X112250160Y-53731000D01*
X112347061Y-53705036D01*
X112433940Y-53654876D01*
X112450000Y-53638816D01*
X112450000Y-54588132D01*
X112495526Y-54580922D01*
X112684437Y-54519542D01*
X112861432Y-54429358D01*
X113022139Y-54312596D01*
X113022140Y-54312596D01*
X113162596Y-54172140D01*
X113162596Y-54172139D01*
X113279358Y-54011432D01*
X113359234Y-53854668D01*
X113407208Y-53803872D01*
X113475029Y-53787077D01*
X113541164Y-53809614D01*
X113580203Y-53854667D01*
X113660213Y-54011694D01*
X113777019Y-54172464D01*
X113917536Y-54312981D01*
X114078306Y-54429787D01*
X114165149Y-54474035D01*
X114255367Y-54520005D01*
X114255370Y-54520006D01*
X114349866Y-54550709D01*
X114444364Y-54581413D01*
X114640639Y-54612500D01*
X114640640Y-54612500D01*
X114839360Y-54612500D01*
X114839361Y-54612500D01*
X115035636Y-54581413D01*
X115224632Y-54520005D01*
X115401694Y-54429787D01*
X115562464Y-54312981D01*
X115702981Y-54172464D01*
X115819787Y-54011694D01*
X115899515Y-53855218D01*
X115947490Y-53804423D01*
X116015311Y-53787628D01*
X116081446Y-53810165D01*
X116120484Y-53855218D01*
X116200213Y-54011694D01*
X116317019Y-54172464D01*
X116457536Y-54312981D01*
X116618306Y-54429787D01*
X116705149Y-54474035D01*
X116795367Y-54520005D01*
X116795370Y-54520006D01*
X116889866Y-54550709D01*
X116984364Y-54581413D01*
X117180639Y-54612500D01*
X117180640Y-54612500D01*
X117379360Y-54612500D01*
X117379361Y-54612500D01*
X117575636Y-54581413D01*
X117764632Y-54520005D01*
X117941694Y-54429787D01*
X118102464Y-54312981D01*
X118242981Y-54172464D01*
X118359787Y-54011694D01*
X118450005Y-53834632D01*
X118511413Y-53645636D01*
X118542500Y-53449361D01*
X118542500Y-52250639D01*
X118511413Y-52054364D01*
X118450005Y-51865368D01*
X118450005Y-51865367D01*
X118359921Y-51688569D01*
X118359787Y-51688306D01*
X118242981Y-51527536D01*
X118102464Y-51387019D01*
X117941694Y-51270213D01*
X117764632Y-51179994D01*
X117764629Y-51179993D01*
X117575637Y-51118587D01*
X117477498Y-51103043D01*
X117379361Y-51087500D01*
X117180639Y-51087500D01*
X117115214Y-51097862D01*
X116984362Y-51118587D01*
X116795370Y-51179993D01*
X116795367Y-51179994D01*
X116618305Y-51270213D01*
X116457533Y-51387021D01*
X116317021Y-51527533D01*
X116200213Y-51688305D01*
X116120485Y-51844780D01*
X116072510Y-51895576D01*
X116004689Y-51912371D01*
X115938554Y-51889833D01*
X115899515Y-51844780D01*
X115819921Y-51688569D01*
X115819787Y-51688306D01*
X115702981Y-51527536D01*
X115562464Y-51387019D01*
X115401694Y-51270213D01*
X115224632Y-51179994D01*
X115224629Y-51179993D01*
X115035637Y-51118587D01*
X114937498Y-51103043D01*
X114839361Y-51087500D01*
X114640639Y-51087500D01*
X114575214Y-51097862D01*
X114444362Y-51118587D01*
X114255370Y-51179993D01*
X114255367Y-51179994D01*
X114078305Y-51270213D01*
X113917533Y-51387021D01*
X113777021Y-51527533D01*
X113660213Y-51688305D01*
X113580204Y-51845331D01*
X113532229Y-51896127D01*
X113464408Y-51912922D01*
X113398273Y-51890384D01*
X113359234Y-51845331D01*
X113279358Y-51688567D01*
X113162596Y-51527860D01*
X113162596Y-51527859D01*
X113022140Y-51387403D01*
X112861432Y-51270641D01*
X112684434Y-51180456D01*
X112684436Y-51180456D01*
X112495517Y-51119074D01*
X112450000Y-51111865D01*
X112450000Y-52061184D01*
X112433940Y-52045124D01*
X112347061Y-51994964D01*
X112250160Y-51969000D01*
X112149840Y-51969000D01*
X112052939Y-51994964D01*
X111966060Y-52045124D01*
X111950000Y-52061184D01*
X111950000Y-51111865D01*
X111949999Y-51111865D01*
X111904482Y-51119074D01*
X111715564Y-51180456D01*
X111538567Y-51270641D01*
X111377860Y-51387403D01*
X111377859Y-51387403D01*
X111237403Y-51527859D01*
X111237403Y-51527860D01*
X111120639Y-51688569D01*
X111040764Y-51845332D01*
X110992790Y-51896127D01*
X110924969Y-51912922D01*
X110858834Y-51890384D01*
X110819796Y-51845332D01*
X110739787Y-51688306D01*
X110622981Y-51527536D01*
X110482464Y-51387019D01*
X110321694Y-51270213D01*
X110144632Y-51179994D01*
X110144629Y-51179993D01*
X109955637Y-51118587D01*
X109857498Y-51103043D01*
X109759361Y-51087500D01*
X109560639Y-51087500D01*
X109495214Y-51097862D01*
X109364362Y-51118587D01*
X109175370Y-51179993D01*
X109175367Y-51179994D01*
X108998305Y-51270213D01*
X108837533Y-51387021D01*
X108697021Y-51527533D01*
X108580213Y-51688305D01*
X108489994Y-51865367D01*
X108489993Y-51865370D01*
X108428587Y-52054362D01*
X108397500Y-52250639D01*
X85670500Y-52250639D01*
X85670500Y-50274500D01*
X85690185Y-50207461D01*
X85742989Y-50161706D01*
X85794500Y-50150500D01*
X164545500Y-50150500D01*
X164612539Y-50170185D01*
G37*
%TD.AperFunction*%
%TD*%
M02*
